<?xml version="1.0" standalone="no"?>
<!DOCTYPE svg PUBLIC "-//W3C//DTD SVG 20010904//EN"
 "http://www.w3.org/TR/2001/REC-SVG-20010904/DTD/svg10.dtd">
<svg version="1.0" xmlns="http://www.w3.org/2000/svg"
 width="480.000000pt" height="480.000000pt" viewBox="0 0 480.000000 480.000000"
 preserveAspectRatio="xMidYMid meet">
<metadata>
Created by potrace 1.11, written by Peter Selinger 2001-2013
</metadata>
<g transform="translate(0.000000,480.000000) scale(0.100000,-0.100000)"
fill="#000000" stroke="none">
<path d="M2304 4773 c-4 -16 -8 -31 -8 -35 -1 -3 -5 -10 -10 -15 -5 -5 -6 -2
-1 6 5 9 4 12 -3 7 -7 -4 -12 -17 -12 -30 0 -12 -6 -28 -12 -35 -11 -11 -10
-13 2 -7 8 4 6 0 -4 -8 -15 -12 -16 -16 -5 -16 10 -1 9 -3 -4 -11 -19 -11 -13
-33 6 -23 7 3 1 -4 -13 -16 -14 -12 -19 -19 -12 -15 7 4 12 0 12 -9 0 -9 -5
-16 -11 -16 -8 0 -8 -5 1 -15 10 -12 10 -15 -1 -15 -11 0 -11 -2 1 -10 14 -9
7 -14 -13 -11 -5 1 -5 -4 0 -11 12 -21 15 -61 3 -53 -5 3 -10 -1 -10 -9 0 -10
-6 -13 -17 -9 -10 4 -14 2 -10 -4 4 -6 -3 -8 -20 -5 -20 4 -24 2 -18 -9 7 -11
6 -12 -6 -2 -8 7 -27 10 -42 7 -16 -2 -27 0 -27 6 0 6 -4 8 -10 5 -6 -4 -10 5
-10 20 0 18 -4 24 -12 19 -8 -5 -7 0 2 11 9 11 10 16 3 11 -9 -5 -13 2 -13 26
0 21 -3 28 -8 20 -6 -9 -13 0 -22 27 -7 22 -17 38 -21 35 -5 -3 -6 2 -3 10 4
11 0 16 -12 16 -9 0 -15 3 -11 6 7 7 -5 23 -50 67 -18 18 -33 38 -33 44 0 7
-5 13 -11 13 -5 0 -7 -6 -3 -12 5 -9 2 -9 -9 1 -9 7 -17 9 -17 4 0 -6 -12 -9
-26 -7 -20 2 -24 -1 -20 -13 5 -13 4 -14 -9 -3 -10 8 -15 9 -15 1 0 -6 -5 -11
-11 -11 -5 0 -7 5 -4 11 4 6 -2 5 -14 -3 -12 -7 -21 -16 -21 -21 0 -4 -4 -6
-9 -3 -5 4 -8 -2 -7 -11 2 -10 -3 -24 -11 -31 -10 -11 -11 -17 -2 -28 9 -11 8
-15 -4 -20 -12 -4 -13 -12 -7 -35 5 -16 5 -29 1 -29 -9 0 -8 -31 3 -48 4 -7 2
-12 -6 -12 -9 0 -9 -3 2 -10 8 -5 10 -10 4 -10 -14 0 -6 -52 10 -62 8 -5 7 -8
-1 -8 -7 0 -13 -5 -13 -11 0 -5 4 -8 9 -5 5 3 12 -1 15 -10 4 -10 2 -13 -7 -8
-9 6 -9 5 0 -7 10 -13 10 -19 -3 -35 -8 -10 -12 -12 -8 -4 4 8 -4 5 -17 -7
-14 -13 -37 -24 -52 -25 -17 -2 -23 -6 -17 -13 13 -16 -49 -10 -64 6 -8 9 -8
10 4 5 9 -5 8 -2 -2 7 -10 8 -18 17 -18 20 0 3 -11 18 -25 33 -13 14 -22 30
-19 35 3 5 -2 9 -11 9 -9 0 -14 3 -12 8 3 4 -1 13 -9 20 -8 7 -14 10 -14 7 0
-5 -37 24 -66 53 -7 6 -17 12 -23 12 -6 0 -11 5 -11 10 0 6 -7 10 -16 10 -8 0
-13 4 -10 9 3 5 -1 12 -10 15 -9 3 -12 2 -9 -5 4 -6 1 -9 -6 -8 -18 3 -49 -10
-71 -29 -10 -8 -18 -11 -18 -6 0 5 -7 -2 -16 -14 -8 -12 -22 -22 -30 -22 -8 0
-12 -5 -9 -10 4 -6 1 -18 -7 -27 -7 -9 -8 -14 -2 -10 10 6 17 -45 16 -106 -1
-9 3 -15 9 -12 12 8 11 -2 -3 -28 -11 -21 -10 -21 7 -7 10 8 16 10 12 3 -4 -6
-3 -14 2 -18 5 -3 10 -14 10 -25 1 -11 1 -29 2 -40 0 -11 5 -19 12 -17 6 1 11
-3 12 -10 0 -6 3 -15 8 -19 4 -4 7 -16 7 -26 0 -10 6 -18 13 -18 6 0 3 -7 -8
-16 -11 -8 -19 -19 -18 -23 1 -4 -7 -7 -17 -8 -11 -1 -29 -11 -41 -22 -24 -22
-52 -23 -72 -1 -10 10 -9 11 2 5 9 -5 12 -4 7 3 -4 7 -13 12 -21 12 -8 0 -19
8 -24 18 -6 9 -11 13 -11 8 0 -5 -9 1 -20 14 -11 13 -20 18 -20 11 0 -7 -12 0
-26 14 -14 14 -31 24 -37 22 -7 -2 -18 3 -25 12 -8 10 -11 10 -6 2 5 -9 3 -12
-4 -7 -7 4 -12 15 -12 24 0 13 -2 14 -9 4 -6 -11 -11 -10 -25 3 -12 12 -16 13
-16 3 0 -8 -5 -6 -11 5 -10 18 -11 18 -25 0 -14 -17 -15 -16 -8 7 5 20 -4 13
-45 -30 -29 -30 -56 -54 -60 -53 -5 1 -6 -7 -3 -19 3 -13 1 -19 -5 -15 -5 3
-9 -3 -8 -14 1 -11 8 -25 16 -30 12 -7 12 -9 -1 -9 -10 0 -11 -3 -4 -8 6 -4
10 -15 8 -24 -1 -10 2 -18 7 -18 5 0 9 -7 9 -15 0 -8 4 -15 10 -15 5 0 7 -7 4
-15 -4 -10 0 -15 12 -15 15 0 16 -2 5 -9 -9 -6 -10 -10 -2 -12 7 -3 13 -13 15
-24 2 -11 8 -20 14 -20 6 0 17 -6 24 -14 11 -12 10 -13 -2 -5 -8 4 -2 -6 14
-23 17 -18 33 -30 36 -28 4 2 7 -1 7 -8 0 -7 4 -19 7 -28 5 -11 -1 -26 -16
-42 -13 -14 -30 -35 -38 -46 -8 -12 -21 -19 -29 -16 -11 4 -11 3 -2 -9 10 -11
9 -14 -1 -12 -7 1 -19 5 -25 9 -7 5 -17 5 -23 2 -5 -3 -10 0 -10 9 0 9 -8 13
-25 12 -13 -2 -22 0 -20 4 3 5 -2 11 -11 14 -8 3 -12 2 -9 -4 3 -6 -1 -7 -9
-4 -9 3 -14 10 -11 14 2 4 -9 6 -26 4 -22 -3 -28 0 -23 9 5 7 0 5 -11 -3 -15
-12 -17 -12 -10 -1 6 11 4 13 -8 8 -12 -4 -17 -1 -18 11 0 10 -3 12 -6 5 -2
-7 -11 -13 -19 -13 -8 0 -14 6 -14 13 0 8 -4 7 -10 -3 -6 -9 -10 -10 -10 -3 0
7 -15 11 -42 9 -24 -2 -43 -7 -43 -13 0 -15 -32 -43 -41 -35 -5 4 -2 -2 6 -12
8 -11 10 -17 4 -13 -7 4 -19 -5 -29 -19 -12 -18 -13 -24 -4 -19 9 4 9 2 -1 -7
-17 -15 -23 -51 -7 -41 6 4 8 0 4 -10 -4 -11 1 -22 13 -29 11 -7 20 -18 20
-25 0 -6 10 -15 21 -18 16 -6 18 -9 8 -15 -9 -6 -5 -11 14 -16 16 -3 26 -9 23
-11 -5 -5 39 -53 48 -53 3 0 18 -13 33 -28 16 -16 36 -32 46 -35 11 -4 15 -12
11 -18 -4 -7 -3 -9 4 -5 6 3 13 2 17 -4 3 -5 2 -10 -4 -10 -6 0 -8 -6 -5 -14
3 -7 -2 -16 -10 -19 -9 -4 -16 -12 -16 -19 0 -9 3 -8 10 2 5 8 10 10 10 4 0
-6 -12 -24 -27 -39 -16 -16 -21 -25 -13 -21 8 4 7 1 -4 -8 -13 -11 -24 -12
-36 -6 -10 5 -20 6 -24 3 -3 -3 -6 0 -6 8 0 11 -2 11 -10 -1 -6 -10 -10 -11
-10 -2 0 6 -5 12 -11 12 -5 0 -7 -6 -3 -12 5 -8 1 -8 -10 1 -18 15 -56 23 -56
12 0 -8 -54 -6 -68 3 -7 4 -12 2 -12 -5 0 -8 -5 -7 -17 2 -12 10 -15 11 -9 1
6 -9 1 -11 -19 -8 -21 4 -24 2 -16 -8 8 -10 4 -12 -19 -8 -21 3 -30 0 -30 -9
0 -11 -2 -11 -8 -2 -6 9 -12 7 -25 -7 -10 -13 -12 -20 -5 -20 7 0 4 -6 -7 -13
-13 -10 -15 -16 -6 -21 9 -6 8 -14 -4 -33 -10 -14 -12 -22 -6 -19 7 5 9 1 5
-8 -3 -9 -10 -14 -14 -11 -5 3 -6 -4 -3 -15 3 -11 9 -20 14 -20 5 0 9 -6 9
-14 0 -7 8 -20 17 -27 14 -12 16 -12 8 0 -6 10 -4 12 4 7 7 -5 10 -14 7 -21
-3 -10 2 -12 20 -9 13 2 24 1 23 -3 -1 -5 -1 -15 0 -23 1 -13 2 -13 11 0 8 13
10 12 10 -4 0 -13 5 -17 20 -13 11 3 18 0 17 -7 -1 -6 4 -10 11 -8 6 1 12 -2
12 -7 0 -6 9 -8 21 -6 14 3 19 0 16 -9 -4 -10 2 -13 19 -11 16 1 24 -3 24 -14
0 -13 2 -13 9 -2 7 11 9 11 14 0 4 -11 6 -11 6 -1 1 16 32 -11 35 -31 1 -6 5
-17 9 -23 4 -7 0 -15 -8 -18 -12 -4 -13 -10 -6 -25 16 -29 -8 -73 -37 -68 -13
3 -26 -2 -31 -10 -7 -13 -9 -13 -15 2 -6 16 -9 16 -33 -6 -14 -13 -23 -18 -19
-11 4 6 2 12 -3 12 -6 0 -11 -6 -11 -12 0 -9 -4 -8 -10 2 -5 8 -10 10 -10 3 0
-6 -9 -9 -20 -6 -11 3 -20 1 -20 -5 0 -5 -7 -13 -16 -16 -10 -4 -13 -2 -8 7 6
9 5 9 -8 0 -8 -7 -19 -9 -23 -5 -5 4 -5 1 0 -7 6 -11 2 -13 -23 -8 -26 5 -30
4 -25 -10 4 -11 3 -14 -5 -9 -7 4 -12 2 -12 -3 0 -6 -9 -11 -21 -11 -11 0 -17
-4 -14 -10 3 -5 0 -10 -8 -10 -20 0 -20 -145 0 -166 10 -10 11 -14 2 -14 -7 0
-10 -3 -7 -6 4 -3 16 0 28 6 15 8 20 8 16 1 -4 -6 0 -14 8 -17 9 -3 14 -10 11
-14 -3 -5 4 -6 15 -3 12 3 20 0 20 -8 0 -7 3 -9 7 -6 3 4 13 1 21 -6 13 -9 14
-9 8 0 -5 9 -2 11 8 7 9 -3 13 -11 10 -16 -4 -6 -1 -8 7 -6 8 3 22 1 33 -4 14
-8 17 -7 10 4 -6 11 -5 11 8 0 13 -10 17 -10 21 0 4 8 6 7 6 -4 1 -12 6 -15
17 -11 11 4 22 -1 30 -12 13 -18 14 -17 15 6 0 22 1 23 9 4 5 -11 9 -14 9 -6
1 10 4 11 14 2 8 -6 17 -8 20 -4 4 3 7 1 7 -5 0 -7 8 -12 18 -12 14 0 15 -2 2
-10 -13 -9 -13 -10 0 -10 13 0 13 -1 0 -10 -8 -5 -10 -10 -3 -10 6 0 9 -9 5
-22 -4 -16 -2 -19 9 -13 12 8 12 6 0 -8 -10 -13 -10 -17 -1 -17 10 0 10 -3 0
-15 -7 -8 -9 -15 -6 -15 4 0 1 -7 -8 -15 -8 -9 -22 -12 -32 -8 -12 5 -15 3 -9
-6 5 -10 2 -11 -13 -7 -13 4 -22 1 -25 -9 -4 -8 -13 -12 -22 -9 -8 4 -15 1
-15 -6 0 -6 -6 -10 -12 -7 -7 2 -19 -3 -26 -12 -11 -13 -12 -13 -7 -1 4 10 2
9 -8 -2 -8 -10 -19 -18 -25 -18 -6 0 -16 -8 -21 -17 -6 -10 -11 -14 -11 -10 0
4 -12 -4 -27 -18 -15 -14 -31 -25 -35 -25 -5 0 -8 -6 -8 -14 0 -8 -6 -16 -12
-19 -9 -3 -7 -11 7 -27 11 -13 15 -20 9 -17 -7 4 -14 -2 -17 -14 -4 -15 -2
-17 6 -10 9 7 12 -2 12 -32 -1 -41 12 -69 28 -60 4 2 10 -3 13 -11 3 -9 10
-16 16 -16 5 0 6 6 2 13 -4 6 2 3 14 -7 17 -14 22 -16 22 -5 0 11 2 11 10 -1
8 -13 10 -13 10 -1 0 12 3 12 12 3 14 -14 32 -16 24 -3 -4 5 3 7 14 4 11 -3
17 -10 14 -15 -4 -6 3 -5 15 2 18 9 26 9 39 -2 12 -10 14 -10 8 0 -6 9 5 12
43 9 28 -1 51 1 51 6 0 4 5 5 10 2 6 -3 10 -1 10 4 0 6 5 11 11 11 5 0 7 -5 3
-11 -4 -7 1 -7 16 1 15 8 20 8 16 1 -4 -6 -4 -11 1 -11 10 0 33 -48 33 -68 0
-8 6 -12 14 -9 10 4 12 0 8 -15 -4 -16 -2 -19 9 -14 8 4 5 0 -5 -8 -11 -9 -16
-16 -10 -16 5 0 1 -5 -9 -11 -9 -5 -22 -7 -27 -4 -6 4 -7 -1 -3 -12 3 -10 3
-15 -2 -11 -4 4 -26 -12 -48 -35 -22 -23 -37 -35 -33 -27 4 8 0 6 -8 -4 -9
-11 -16 -23 -16 -28 0 -4 -3 -7 -8 -5 -9 3 -52 -40 -52 -54 0 -5 -4 -7 -10 -4
-6 3 -7 -1 -4 -9 4 -11 0 -16 -11 -16 -9 0 -13 -4 -10 -10 3 -5 2 -10 -3 -10
-12 0 -11 -32 2 -49 7 -10 8 -13 0 -8 -6 3 -11 -1 -11 -9 0 -8 6 -13 14 -10 8
3 15 -4 19 -19 3 -14 10 -25 16 -25 5 0 7 -4 3 -9 -3 -5 8 -19 25 -31 21 -15
30 -17 30 -8 0 8 3 9 8 3 8 -12 52 -15 52 -4 0 4 10 6 21 4 12 -2 29 0 39 5
11 6 21 5 29 -3 10 -9 11 -8 6 6 -8 20 5 23 24 5 10 -11 11 -9 5 7 -7 18 -6
18 9 6 11 -9 17 -10 17 -2 0 6 5 11 12 11 6 0 20 8 31 17 11 10 17 12 13 6
-11 -19 5 -16 21 5 9 10 12 11 7 2 -6 -12 -4 -13 7 -2 7 6 21 12 32 12 10 0
15 5 12 10 -10 16 1 11 16 -7 12 -14 12 -16 0 -8 -10 5 -12 4 -7 -3 4 -7 14
-12 22 -12 8 0 12 -5 9 -10 -3 -6 1 -13 10 -16 9 -4 14 -13 11 -20 -3 -8 0
-11 10 -7 8 3 14 -1 14 -11 0 -9 5 -16 11 -16 8 0 8 -5 -1 -15 -7 -8 -9 -15
-4 -15 5 -1 -2 -7 -16 -15 -14 -8 -22 -14 -18 -15 8 0 -18 -34 -55 -72 -10
-10 -15 -23 -12 -28 3 -5 -7 -16 -22 -25 -15 -9 -19 -14 -9 -10 15 4 17 3 8
-8 -7 -8 -8 -18 -4 -22 4 -5 1 -5 -5 -1 -12 7 -18 -12 -14 -38 1 -5 -5 -6 -13
-3 -15 6 -16 -9 -3 -30 5 -8 3 -13 -3 -13 -7 0 -10 -7 -7 -15 4 -8 2 -17 -4
-20 -5 -4 9 -24 31 -45 22 -21 40 -44 40 -50 0 -7 6 -10 13 -7 8 3 20 -3 27
-13 12 -17 15 -17 25 -3 10 13 14 13 20 3 6 -9 4 -11 -5 -5 -9 6 -11 4 -5 -4
5 -9 13 -7 29 8 12 12 26 18 29 14 4 -3 7 -1 7 5 0 7 6 11 12 9 7 -1 12 4 10
12 -2 8 3 11 12 8 9 -4 18 -2 22 4 3 6 13 8 21 5 8 -3 11 -1 8 4 -3 6 -1 10 5
10 6 0 8 5 4 13 -6 9 -5 9 7 0 12 -10 18 -9 31 7 9 10 13 22 10 26 -4 4 -2 5
3 1 14 -8 40 9 40 25 0 7 6 14 13 14 6 1 19 2 27 3 8 0 14 4 12 9 -1 4 3 7 8
7 5 0 9 -3 8 -7 -2 -5 4 -8 12 -8 8 0 15 -4 15 -10 0 -5 6 -10 14 -10 8 0 22
-10 30 -22 11 -15 16 -18 16 -8 1 9 7 4 15 -10 10 -19 11 -28 2 -39 -10 -12
-9 -13 3 -6 13 8 13 6 1 -8 -7 -9 -18 -14 -25 -10 -6 3 -8 3 -4 -2 4 -4 2 -15
-5 -23 -10 -13 -9 -14 3 -7 12 7 13 6 3 -7 -7 -8 -10 -18 -6 -21 3 -4 -2 -7
-13 -7 -14 0 -16 -2 -6 -9 11 -7 11 -10 0 -22 -7 -8 -13 -21 -13 -29 1 -8 -2
-20 -7 -26 -4 -6 -6 -20 -3 -32 2 -12 -1 -25 -7 -28 -7 -4 -8 -2 -4 4 4 7 2
12 -3 12 -14 0 -14 -17 -1 -25 8 -5 7 -12 -2 -23 -11 -13 -11 -14 1 -7 11 6
12 5 5 -6 -5 -8 -9 -30 -11 -48 -1 -25 1 -31 8 -20 8 13 13 6 10 -14 -1 -5 4
-7 11 -5 7 3 21 -6 32 -19 10 -13 24 -22 32 -19 7 3 17 -1 22 -10 4 -8 18 -16
30 -19 13 -2 20 0 17 6 -6 8 16 14 38 10 5 -1 6 3 3 8 -3 5 2 15 11 22 14 12
16 12 9 -1 -4 -8 2 -4 13 10 11 14 21 21 21 15 0 -5 5 -2 11 8 6 9 15 14 21
11 6 -4 8 -3 5 3 -4 6 5 18 19 28 14 9 24 19 21 21 -3 3 12 24 34 46 21 22 36
44 34 48 -3 4 6 15 20 24 28 18 39 21 30 6 -3 -5 3 -10 14 -10 10 0 22 -6 24
-12 4 -10 6 -9 6 1 1 10 6 9 19 -5 9 -10 24 -19 32 -19 10 0 15 -10 15 -33 1
-17 -3 -32 -7 -32 -4 0 -7 -6 -5 -13 1 -6 -5 -11 -13 -9 -10 1 -9 -2 4 -13 11
-8 15 -15 9 -15 -16 0 -15 -152 1 -162 8 -6 7 -8 -1 -8 -7 0 -13 -5 -13 -11 0
-5 6 -7 13 -3 6 4 9 4 5 -1 -4 -4 -3 -14 3 -22 9 -10 8 -13 -2 -13 -12 0 -12
-2 0 -9 8 -5 11 -15 8 -23 -3 -8 4 -20 15 -27 11 -7 18 -8 14 -3 -3 5 1 9 9 9
8 0 13 -5 12 -11 -1 -6 6 -10 17 -8 12 2 16 -1 10 -9 -5 -9 -1 -11 14 -7 13 4
22 1 22 -5 0 -7 5 -5 10 3 6 10 10 11 10 3 0 -7 8 -13 18 -13 23 1 65 37 57
50 -3 5 2 10 11 10 10 0 15 3 12 6 -3 3 5 17 18 31 13 14 24 32 24 39 0 8 6
11 17 7 11 -4 14 -3 9 5 -4 7 -2 12 6 12 9 0 9 3 -2 10 -8 5 -10 10 -4 10 7 0
15 11 18 25 4 14 11 25 16 25 5 0 7 9 5 20 -2 11 1 20 7 20 6 0 8 11 5 25 -2
14 -2 24 1 21 2 -3 11 1 19 9 17 17 47 20 37 4 -4 -7 1 -7 16 1 18 10 21 9 15
-1 -6 -9 -3 -11 8 -6 10 3 17 3 17 -1 0 -4 14 -8 31 -9 18 -1 33 -4 35 -5 1
-2 4 -30 5 -63 1 -33 7 -63 13 -67 7 -5 6 -8 -3 -8 -11 0 -9 -4 5 -15 19 -15
19 -15 0 -8 -19 6 -19 5 -4 -16 9 -13 14 -30 11 -37 -3 -8 -1 -14 4 -14 5 0
10 -9 11 -20 4 -43 6 -49 14 -44 4 3 9 0 9 -5 2 -12 5 -26 9 -38 1 -5 2 -12 1
-16 -1 -5 3 -6 9 -2 5 3 10 1 10 -4 0 -7 35 -11 98 -11 66 0 92 3 82 10 -11 7
-11 10 -2 10 7 0 10 5 7 10 -3 6 0 10 8 10 7 0 14 6 15 13 7 51 11 61 28 68
10 4 13 8 6 8 -8 1 -10 6 -5 14 4 6 9 21 10 31 2 11 11 29 21 40 16 20 16 20
0 7 -24 -18 -23 0 2 26 13 15 16 23 7 26 -9 3 -8 8 3 22 8 10 10 16 4 12 -7
-4 -11 2 -11 18 0 14 3 25 7 25 4 0 10 9 13 21 4 14 10 18 19 13 20 -12 47
-12 42 1 -6 15 61 12 80 -4 9 -8 14 -25 12 -41 -2 -21 2 -30 15 -33 12 -3 16
-11 12 -25 -3 -13 3 -28 16 -41 12 -12 18 -21 15 -21 -4 0 0 -7 7 -17 8 -9 13
-18 11 -20 -3 -4 13 -24 42 -53 10 -11 15 -24 11 -31 -5 -8 -4 -10 4 -5 6 4
14 0 17 -8 3 -9 13 -16 21 -16 9 0 11 -5 7 -13 -6 -9 -4 -9 7 -1 8 6 26 10 41
9 15 -1 25 1 23 5 -2 3 6 12 18 20 20 12 21 12 8 -4 -12 -14 -12 -16 3 -10 9
3 16 10 16 16 0 5 4 6 10 3 11 -7 42 8 41 18 -3 24 0 37 9 32 13 -8 8 18 -5
27 -6 5 -5 8 4 8 7 0 11 6 7 15 -3 8 -2 15 2 15 9 0 7 105 -2 119 -4 5 -2 13
4 16 8 5 7 12 -2 23 -10 12 -10 14 0 8 6 -4 12 -2 12 3 0 6 -4 11 -9 11 -5 0
-7 10 -3 22 4 15 2 19 -7 14 -8 -6 -11 -2 -9 10 2 12 -2 18 -12 16 -11 -2 -11
1 3 11 9 8 17 19 17 26 0 10 13 15 33 12 4 0 7 4 7 11 0 6 3 8 7 5 3 -4 12 1
20 11 8 9 12 11 8 4 -3 -6 -3 -12 0 -12 11 0 34 27 29 33 -3 3 4 3 16 0 13 -3
19 -11 16 -20 -3 -8 -1 -11 4 -8 6 3 10 -1 10 -9 0 -9 6 -16 14 -16 8 0 18 -5
22 -12 5 -7 2 -9 -7 -4 -8 4 -6 1 3 -7 10 -8 15 -17 11 -20 -3 -4 2 -7 11 -7
12 0 16 -5 12 -16 -3 -8 -2 -12 4 -9 6 3 10 1 10 -5 0 -6 5 -8 10 -5 6 3 10
-1 10 -9 0 -14 12 -20 33 -17 7 1 11 -15 8 -32 -1 -5 2 -6 7 -3 4 2 16 -6 26
-20 11 -13 25 -24 33 -24 9 0 11 -5 7 -12 -6 -10 -4 -10 8 0 13 10 18 10 24 1
5 -8 3 -10 -7 -4 -11 6 -11 5 -2 -5 9 -10 17 -9 42 3 20 10 29 11 25 4 -3 -7
6 2 21 18 14 17 23 23 19 15 -5 -10 -1 -9 14 4 12 10 19 24 15 30 -4 6 2 4 12
-4 17 -14 18 -13 12 3 -3 9 -2 17 4 17 6 0 5 8 -2 21 -8 15 -8 19 0 15 6 -4
11 -2 11 3 0 6 -6 11 -12 11 -9 0 -8 4 2 10 13 9 13 10 0 10 -12 0 -12 2 -2 9
11 7 10 9 -3 14 -13 5 -14 11 -5 27 8 15 8 20 -1 20 -9 0 -9 3 0 14 9 10 7 17
-6 27 -17 13 -17 13 -3 -6 14 -19 14 -19 -3 -6 -13 10 -15 17 -6 27 7 9 8 14
1 14 -5 0 -12 9 -15 20 -3 11 0 20 6 20 6 0 1 9 -11 20 -12 11 -19 26 -16 34
3 7 -2 16 -10 19 -10 4 -12 13 -8 29 6 26 27 50 35 42 3 -3 8 4 12 15 4 13 11
18 22 14 10 -4 14 -2 10 4 -4 6 0 14 9 17 10 4 13 2 8 -7 -6 -8 -3 -8 9 1 14
12 20 9 49 -20 18 -18 32 -32 33 -30 1 11 35 -13 35 -24 0 -8 9 -14 20 -14 11
0 20 -4 20 -10 0 -5 7 -10 16 -10 8 0 12 -5 8 -11 -4 -8 0 -9 15 -4 13 4 21 2
21 -5 0 -6 8 -10 18 -8 9 2 16 -2 15 -9 -2 -7 7 -10 23 -7 16 3 23 1 19 -6 -4
-6 4 -10 19 -10 37 0 41 2 38 20 -2 11 1 10 8 -3 11 -17 13 -16 29 5 10 13 19
27 19 31 0 5 11 18 24 29 13 11 22 24 21 29 -2 5 5 9 15 9 9 0 13 4 7 8 -5 4
-17 16 -25 26 -13 18 -13 19 0 11 12 -6 13 -5 3 6 -7 7 -13 21 -13 31 0 9 -9
22 -20 28 -11 6 -18 15 -15 21 9 13 -5 50 -16 44 -5 -4 -9 3 -9 14 0 12 -9 26
-20 33 -11 7 -20 18 -20 25 0 7 -4 13 -10 13 -5 0 -10 6 -10 13 0 7 -9 21 -21
30 -21 18 -22 54 -1 50 6 -2 9 4 6 12 -4 8 -1 15 5 15 14 0 42 55 33 65 -4 5
-1 5 6 1 7 -4 20 -2 29 6 9 7 14 8 11 3 -4 -6 3 -17 15 -25 20 -12 21 -12 8 4
-12 14 -12 16 3 10 9 -3 16 -10 16 -16 0 -5 4 -7 9 -3 5 3 13 0 16 -6 4 -5 14
-8 22 -5 9 4 11 2 7 -6 -5 -7 0 -9 14 -6 14 4 20 2 15 -5 -4 -6 0 -8 10 -4 10
3 17 2 17 -3 0 -6 7 -10 16 -10 9 0 12 -5 8 -12 -4 -7 -3 -8 5 -4 9 6 9 11 1
21 -10 12 -7 12 13 2 14 -6 23 -15 21 -19 -3 -4 9 -5 27 -1 26 5 30 3 24 -8
-7 -11 -6 -12 6 -2 12 10 18 10 27 1 9 -9 12 -9 12 2 0 11 3 11 12 2 9 -9 19
-3 45 24 35 37 41 50 20 38 -6 -3 0 4 14 17 18 17 27 35 28 62 1 21 -3 37 -9
37 -6 0 -9 4 -6 9 3 5 -1 12 -10 15 -8 3 -12 11 -8 17 4 7 3 9 -3 6 -11 -7
-51 30 -45 41 2 3 -5 9 -15 13 -10 4 -14 8 -10 8 5 1 1 8 -7 17 -9 8 -14 19
-11 24 3 4 -4 6 -15 3 -18 -5 -25 5 -21 30 1 5 -3 6 -9 2 -5 -3 -10 -1 -10 4
0 6 -7 11 -15 11 -8 0 -15 5 -15 10 0 6 -5 10 -11 10 -6 0 -17 7 -26 15 -13
13 -13 18 -1 32 9 12 9 15 0 9 -6 -4 -3 9 9 28 12 20 25 36 31 36 5 0 6 5 3
10 -10 17 14 38 36 33 13 -4 18 -11 15 -22 -4 -11 -2 -10 9 3 14 18 20 15 16
-8 -1 -5 5 -4 13 4 13 10 16 10 16 -1 0 -11 2 -11 10 1 9 13 10 13 10 0 0 -13
1 -13 10 0 5 8 10 11 10 5 0 -5 13 -10 30 -11 19 -1 27 3 23 10 -4 6 0 5 9 -2
12 -10 18 -10 23 -1 6 8 10 7 16 -2 7 -11 9 -11 9 1 0 13 1 13 10 0 5 -8 10
-10 10 -4 0 5 14 9 30 8 17 -1 33 3 37 9 4 6 1 7 -7 2 -8 -5 -11 -4 -7 3 4 5
17 8 28 5 23 -6 40 14 46 52 2 11 8 22 14 23 6 3 6 9 -2 18 -9 12 -9 13 3 9
24 -9 15 68 -11 94 -11 11 -24 22 -28 24 -5 1 -7 5 -6 9 1 3 -4 9 -13 12 -10
4 -13 2 -8 -7 5 -8 2 -7 -9 2 -9 7 -17 21 -18 30 0 11 -2 12 -6 3 -3 -9 -10
-7 -24 9 -10 12 -19 18 -19 13 0 -5 -5 -1 -11 9 -8 14 -14 15 -24 7 -10 -9
-16 -7 -23 7 -6 10 -23 20 -38 21 -15 1 -31 8 -36 15 -6 9 -8 8 -8 -3 0 -12
-2 -12 -16 1 -8 9 -16 22 -17 30 -2 8 -6 20 -10 27 -5 7 -2 15 8 18 13 5 14 9
4 15 -10 6 -9 9 4 15 17 6 17 7 0 21 -10 8 -12 11 -4 7 11 -5 13 -3 7 11 -6
16 -4 16 11 4 9 -8 14 -9 10 -2 -4 6 -3 14 3 18 5 3 10 0 10 -7 0 -10 2 -10 9
1 6 9 11 10 15 3 4 -6 13 -9 21 -6 8 4 12 10 9 15 -3 5 0 8 8 7 7 -2 16 -10
20 -18 6 -13 7 -13 7 1 1 11 9 15 27 13 17 -1 24 2 21 10 -4 9 2 11 19 8 13
-2 31 1 39 8 9 7 18 10 22 6 4 -3 17 4 30 16 22 21 24 21 18 3 -6 -19 -6 -19
8 -3 8 10 17 15 20 11 4 -3 9 2 13 11 3 9 10 13 15 10 5 -3 9 1 9 8 0 9 3 9
10 -2 7 -10 10 15 10 80 0 103 -10 124 -62 132 -13 2 -22 8 -21 14 1 5 -12 9
-28 8 -16 -1 -29 2 -29 8 0 5 -4 7 -9 3 -5 -3 -17 2 -25 11 -12 11 -16 12 -16
2 0 -9 -3 -9 -8 -2 -4 6 -19 10 -34 10 -14 -1 -24 2 -22 6 3 4 -2 8 -11 8 -10
0 -14 -5 -10 -12 4 -7 0 -5 -8 4 -10 13 -16 15 -25 6 -9 -9 -12 -9 -12 2 0 7
-3 10 -7 7 -3 -4 -13 -1 -21 6 -13 10 -14 9 -7 -3 7 -12 6 -13 -6 -3 -8 6 -17
12 -21 12 -5 1 -7 4 -5 9 1 4 5 6 10 4 4 -1 7 2 7 8 0 5 -4 10 -9 10 -5 0 -11
11 -13 24 -4 19 -1 23 11 18 14 -5 14 -4 1 10 -8 9 -19 14 -23 11 -5 -3 -4 4
2 16 7 12 9 27 5 34 -5 8 -2 7 9 -2 15 -12 21 -9 18 12 0 4 7 8 16 8 10 1 23
2 28 4 6 1 21 3 35 4 20 1 22 3 10 11 -12 8 -10 10 10 11 14 1 28 1 33 0 4 0
7 4 7 10 0 6 7 9 15 6 8 -4 17 -1 21 5 5 7 2 8 -6 3 -9 -5 -11 -4 -6 3 4 7 14
12 22 12 8 0 17 7 20 15 4 8 10 12 15 9 5 -3 9 0 9 6 0 6 3 9 8 7 4 -3 23 11
42 30 19 20 28 32 20 28 -8 -3 -6 1 4 9 12 10 15 16 7 16 -8 0 -11 6 -7 15 3
8 0 15 -7 15 -8 0 -8 3 2 9 9 6 10 11 2 15 -6 4 -9 12 -6 17 4 5 -2 9 -12 9
-15 0 -16 2 -3 10 11 7 11 10 2 10 -7 0 -10 5 -7 10 3 6 1 10 -4 10 -6 0 -10
6 -9 13 2 6 -3 11 -9 9 -7 -1 -13 2 -13 6 0 5 -12 8 -27 7 -34 -2 -55 4 -48
15 3 5 -3 7 -12 5 -10 -2 -18 -4 -18 -5 0 -1 -8 -3 -18 -5 -9 -2 -15 1 -11 6
8 13 -10 11 -25 -3 -12 -11 -13 -10 -7 6 7 19 6 19 -13 2 -15 -13 -20 -14 -25
-4 -5 10 -7 10 -12 1 -3 -7 -10 -13 -15 -13 -6 0 -8 4 -5 9 8 12 -19 8 -35 -6
-8 -6 -26 -10 -41 -8 -16 2 -28 -2 -28 -8 0 -7 -7 -4 -14 5 -7 10 -16 14 -21
10 -4 -4 -4 3 -1 16 5 14 3 22 -4 22 -6 0 -8 5 -5 10 3 6 1 10 -6 10 -7 0 -10
3 -6 6 3 4 -1 13 -9 21 -24 24 2 80 33 69 6 -3 14 2 17 10 3 9 11 12 17 8 7
-4 9 -3 6 3 -5 8 25 43 38 43 11 0 45 41 45 53 0 8 12 19 26 26 16 7 24 17 20
26 -3 8 -2 14 2 14 20 -3 33 2 27 11 -3 6 1 13 9 16 9 3 16 10 16 16 0 5 -6 6
-12 3 -7 -4 -5 0 5 8 17 15 24 33 8 23 -5 -3 -12 1 -15 10 -4 10 -2 13 7 8 9
-6 9 -5 0 8 -7 8 -11 18 -8 21 3 4 2 5 -1 3 -9 -7 -33 17 -27 27 2 4 -1 7 -6
7 -6 0 -11 6 -11 14 0 8 -5 18 -12 22 -7 5 -9 2 -4 -7 4 -8 1 -6 -7 3 -8 10
-17 15 -20 11 -4 -3 -7 -2 -7 4 0 5 -18 9 -39 9 -21 -1 -37 -5 -33 -10 3 -5
-5 -7 -16 -4 -12 4 -20 2 -17 -2 3 -5 1 -11 -5 -15 -5 -3 -10 -1 -10 6 0 8 -4
8 -15 -1 -12 -10 -15 -10 -15 1 0 12 -2 12 -9 0 -5 -7 -14 -10 -20 -7 -6 4
-11 0 -11 -11 0 -14 -2 -15 -9 -5 -12 19 -16 19 -38 -1 -11 -9 -23 -14 -26
-10 -4 3 -7 1 -7 -7 0 -10 -3 -10 -15 0 -12 10 -15 10 -15 -3 0 -9 -5 -19 -12
-23 -7 -5 -8 -3 -3 7 8 12 6 12 -8 0 -14 -11 -17 -11 -18 0 0 8 -4 5 -9 -6 -7
-17 -9 -17 -9 -2 -1 9 -5 17 -11 17 -5 0 -10 6 -10 13 0 14 -45 69 -52 62 -2
-2 -4 7 -4 20 0 13 2 22 4 20 7 -7 61 69 56 77 -3 5 2 8 10 8 9 0 16 5 16 11
0 6 11 25 25 41 14 16 23 34 19 39 -3 5 0 9 5 9 6 0 10 6 9 13 -2 6 3 11 10 9
15 -3 15 3 2 29 -8 14 -8 19 2 17 6 -2 12 3 13 10 0 7 6 16 13 21 16 10 14 22
-7 39 -12 10 -12 12 -1 6 8 -4 -10 17 -40 47 -30 29 -58 53 -62 51 -5 -1 -8 2
-8 6 0 5 -7 9 -15 9 -9 0 -14 -5 -11 -12 2 -7 -6 -10 -25 -7 -18 3 -29 0 -29
-7 0 -7 -5 -9 -10 -6 -6 3 -13 -1 -16 -10 -5 -13 -9 -13 -22 -3 -10 8 -13 8
-9 2 4 -7 -3 -14 -18 -18 -14 -4 -23 -11 -19 -17 3 -6 0 -10 -7 -8 -27 3 -39
-1 -36 -13 1 -7 -5 -13 -13 -13 -8 0 -14 -6 -13 -13 2 -7 -4 -9 -14 -5 -10 4
-14 2 -10 -4 4 -6 -4 -14 -18 -17 -14 -4 -23 -11 -20 -16 3 -6 1 -10 -4 -11
-40 -4 -52 -1 -70 20 -12 13 -21 20 -21 15 0 -5 -5 -1 -11 9 -5 9 -16 17 -23
17 -8 0 -17 7 -20 16 -6 15 -4 15 10 3 16 -13 16 -12 5 9 -9 17 -9 22 1 22 9
0 9 3 -2 10 -12 8 -12 10 -1 10 8 0 12 3 8 6 -3 3 3 14 13 24 12 12 16 28 14
49 -2 21 1 34 11 37 8 3 11 12 8 21 -4 9 -2 14 3 10 6 -3 10 17 10 53 -1 32 2
56 5 54 4 -2 10 3 13 12 3 8 2 12 -4 9 -6 -3 -10 -1 -10 4 0 6 4 11 10 11 18
0 -25 61 -47 66 -13 4 -20 11 -16 17 3 6 1 7 -6 3 -11 -7 -44 17 -36 26 4 3
-36 3 -78 -1 -5 -1 -5 -6 -1 -13 5 -8 2 -9 -9 -5 -11 4 -17 1 -17 -9 0 -8 -4
-13 -8 -10 -5 3 -16 -6 -26 -19 -10 -14 -23 -22 -28 -19 -4 3 -7 0 -6 -8 2 -7
-3 -12 -9 -11 -7 2 -13 -4 -13 -12 0 -8 -3 -15 -7 -15 -5 -1 -21 -12 -38 -26
-16 -15 -23 -23 -15 -19 8 3 7 0 -4 -9 -11 -9 -15 -20 -10 -28 4 -7 4 -10 -1
-6 -10 9 -47 -31 -39 -43 3 -5 -2 -6 -10 -3 -10 4 -16 1 -16 -7 0 -11 -2 -11
-9 1 -6 8 -8 17 -5 21 2 4 -4 6 -13 4 -10 -1 -27 5 -37 14 -16 13 -18 13 -12
1 4 -8 -2 -4 -14 10 -12 14 -19 19 -15 13 4 -8 1 -11 -8 -7 -8 3 -17 14 -20
25 -3 10 -2 17 3 14 9 -6 23 25 15 33 -3 3 -5 -1 -5 -8 0 -7 -2 -11 -5 -8 -10
10 7 38 19 31 6 -4 5 1 -3 10 -11 14 -11 17 0 17 11 0 11 2 -1 10 -8 5 -10 10
-4 10 6 0 10 30 10 80 -1 44 -4 80 -7 80 -4 0 -10 7 -13 16 -6 15 -4 15 10 3
16 -13 16 -12 4 11 -7 14 -14 27 -14 30 -1 3 -4 4 -8 3 -4 -2 -4 5 -1 14 5 12
3 14 -7 8 -10 -6 -12 -4 -7 8 6 17 -2 21 -37 17 -11 -1 -15 3 -12 9 7 11 -6
15 -33 12 -7 -2 -10 2 -7 7 11 19 -68 1 -82 -19 -7 -10 -18 -16 -24 -13 -7 4
-8 2 -4 -4 4 -7 2 -12 -4 -12 -6 0 -9 -4 -5 -9 3 -6 -1 -13 -8 -18 -7 -4 -17
-15 -20 -23 -4 -8 -16 -28 -27 -45 -39 -60 -52 -88 -38 -79 8 4 7 0 -3 -12
-16 -18 -34 -71 -30 -87 0 -4 -8 -3 -20 4 -15 8 -19 8 -15 0 5 -7 -1 -10 -16
-7 -13 3 -23 5 -23 6 0 1 -12 3 -27 4 -16 1 -28 -2 -28 -7 0 -4 -5 -5 -10 -2
-6 4 -7 11 -4 17 5 8 1 9 -10 5 -10 -4 -15 -3 -11 3 3 6 0 10 -7 10 -9 0 -9 3
2 10 13 9 13 10 0 10 -13 0 -13 2 0 10 12 7 11 12 -5 32 -11 12 -13 17 -4 11
13 -11 15 -9 14 9 -1 12 -7 24 -13 26 -7 2 -12 8 -12 13 0 6 6 7 13 3 6 -4 3
3 -8 16 -12 14 -14 20 -5 15 12 -6 12 -5 3 5 -6 7 -9 18 -6 26 2 7 -4 18 -15
25 -16 10 -18 17 -11 31 7 12 6 18 -2 18 -6 0 -9 8 -6 19 3 13 0 18 -8 15 -7
-3 -16 0 -21 7 -5 8 -3 10 7 4 11 -7 12 -6 2 7 -7 8 -9 19 -5 23 4 5 1 5 -5 1
-8 -4 -13 -1 -13 8 0 13 -15 16 -89 16 -88 0 -89 0 -97 -27z m726 -63 c0 -5
-5 -10 -11 -10 -5 0 -7 5 -4 10 3 6 8 10 11 10 2 0 4 -4 4 -10z m-747 -413
c18 11 67 10 67 -1 0 -6 4 -5 9 3 6 9 11 10 15 2 5 -8 13 -8 28 0 16 8 22 8
29 -2 6 -11 11 -11 20 -2 9 9 18 9 32 2 14 -8 18 -8 13 0 -4 6 -2 11 3 11 6 0
11 -4 11 -9 0 -11 19 -9 39 3 8 5 16 4 21 -4 4 -7 12 -10 17 -7 6 4 24 2 41
-2 19 -6 34 -5 40 1 8 8 9 4 5 -13 -5 -23 -5 -23 9 -5 12 15 17 16 23 6 6 -9
4 -11 -5 -5 -8 5 -11 4 -7 -2 3 -5 20 -8 37 -5 16 2 37 -1 45 -8 12 -10 15
-10 15 1 0 8 6 6 16 -7 8 -10 13 -14 10 -8 -3 7 2 15 11 18 10 4 14 4 11 0 -4
-3 -1 -13 7 -20 16 -17 29 -19 19 -3 -4 8 -1 8 12 1 11 -5 31 -9 46 -8 14 1
26 -3 25 -9 -1 -5 4 -9 11 -7 6 1 12 -2 12 -8 0 -5 5 -10 11 -10 5 0 7 6 3 13
-5 8 -2 8 9 -2 9 -7 17 -10 17 -5 0 4 5 3 12 -4 7 -7 20 -12 30 -12 10 0 18
-5 18 -11 0 -5 4 -8 9 -4 5 3 13 1 16 -5 5 -8 12 -7 23 2 12 10 14 10 8 1 -4
-8 -2 -13 4 -13 6 0 9 -4 6 -9 -4 -5 3 -7 14 -4 12 3 20 0 20 -6 0 -7 5 -9 10
-6 6 3 10 1 10 -5 0 -7 7 -10 15 -6 9 3 19 -3 26 -15 6 -11 17 -18 24 -15 16
6 38 -17 28 -28 -4 -4 1 -4 10 0 12 4 26 -1 41 -15 14 -13 29 -19 40 -15 9 4
16 3 14 -2 -2 -5 1 -10 5 -11 5 -1 15 -10 24 -20 9 -11 12 -12 8 -3 -4 8 3 5
14 -8 11 -13 23 -22 27 -21 7 2 38 -18 59 -38 7 -7 15 -9 19 -6 3 4 6 -1 6
-10 0 -11 5 -14 17 -10 9 4 14 2 11 -3 -3 -5 0 -15 8 -22 8 -7 14 -10 14 -7 0
3 6 0 13 -7 16 -14 14 -56 -4 -72 -9 -8 -10 -8 -4 3 5 10 4 12 -4 7 -6 -4 -8
-12 -5 -18 4 -5 -8 -23 -25 -38 -17 -16 -31 -34 -31 -40 0 -6 -4 -9 -9 -5 -6
3 -15 -4 -21 -15 -6 -11 -16 -17 -22 -14 -7 4 -8 3 -4 -4 4 -7 -13 -32 -43
-61 -28 -26 -51 -45 -51 -42 0 3 -5 -1 -10 -9 -9 -13 -10 -13 -10 0 0 13 -1
13 -10 0 -7 -11 -10 -11 -10 -2 0 8 -5 10 -12 6 -7 -5 -9 -2 -5 9 4 11 2 14
-7 11 -7 -3 -19 2 -26 11 -7 8 -19 15 -27 15 -8 0 -28 14 -44 31 -16 17 -29
27 -29 23 0 -5 -7 0 -15 10 -10 13 -15 15 -15 6 0 -9 -4 -8 -13 5 -9 11 -19
15 -27 10 -9 -5 -11 -4 -6 3 4 7 1 12 -9 12 -9 0 -14 4 -11 8 2 4 -4 9 -15 9
-10 1 -26 9 -35 17 -9 9 -20 14 -25 11 -5 -4 -9 -1 -9 4 0 6 -9 11 -21 11 -13
0 -18 4 -13 13 5 8 3 8 -9 -2 -14 -11 -18 -11 -23 3 -3 9 -10 14 -14 11 -5 -3
-12 0 -16 6 -4 8 -9 7 -15 -2 -6 -10 -9 -11 -9 -1 0 6 -9 12 -20 12 -11 0 -29
5 -40 10 -11 6 -29 14 -40 20 -12 6 -21 6 -25 0 -4 -6 -16 -3 -31 6 -13 9 -24
12 -24 8 0 -5 -5 -2 -10 6 -9 13 -10 13 -10 0 -1 -12 -3 -11 -11 3 -6 10 -15
14 -22 10 -18 -11 -37 -12 -37 -2 0 5 -5 9 -11 9 -5 0 -8 -4 -5 -8 3 -5 -1 -9
-9 -9 -8 0 -13 3 -11 6 2 3 -3 13 -12 21 -14 13 -15 12 -9 -4 6 -16 5 -17 -8
-6 -9 7 -31 13 -49 14 -26 1 -32 -2 -28 -14 5 -13 3 -13 -11 -1 -9 7 -14 18
-11 25 3 6 0 4 -8 -5 -8 -10 -20 -14 -32 -9 -27 9 -67 0 -60 -14 3 -6 -1 -3
-9 7 -16 19 -32 24 -21 6 5 -8 2 -9 -11 -1 -10 5 -30 6 -44 2 -14 -4 -34 -6
-44 -4 -10 1 -14 -2 -10 -9 4 -6 0 -8 -10 -4 -9 3 -19 2 -23 -4 -4 -6 -11 -6
-20 2 -10 8 -14 8 -14 1 0 -6 -7 -9 -16 -5 -9 3 -20 0 -25 -8 -5 -8 -9 -9 -9
-3 0 6 -7 11 -15 11 -8 0 -15 -4 -15 -9 0 -4 -11 -8 -25 -8 -14 0 -25 -4 -25
-8 0 -4 -14 -9 -32 -10 -17 -2 -37 -7 -44 -13 -8 -7 -14 -6 -17 3 -3 8 -6 6
-6 -5 -1 -10 -6 -15 -11 -12 -6 4 -18 1 -27 -7 -14 -11 -16 -11 -8 2 7 12 6
13 -7 3 -8 -7 -18 -10 -21 -6 -4 3 -7 1 -7 -5 0 -7 -6 -11 -12 -10 -7 2 -12
-2 -11 -9 2 -7 -4 -10 -12 -7 -8 3 -20 2 -27 -2 -7 -5 -16 -9 -20 -10 -5 -1
-11 -2 -15 -3 -5 -1 -1 -6 7 -11 12 -8 9 -9 -10 -7 -14 2 -31 -3 -40 -13 -8
-9 -11 -10 -6 -3 14 21 -1 15 -25 -9 -12 -13 -19 -16 -15 -8 4 8 -1 5 -10 -7
-9 -13 -22 -23 -28 -23 -6 0 -17 -9 -23 -19 -8 -13 -19 -18 -35 -14 -18 4 -20
3 -8 -6 13 -10 13 -11 0 -12 -8 -1 -18 -1 -22 0 -5 0 -8 -4 -8 -11 0 -6 -3 -8
-7 -5 -3 4 -16 -4 -28 -17 -18 -19 -25 -22 -35 -13 -9 9 -11 9 -7 1 12 -21
-20 -23 -41 -3 -12 10 -26 19 -32 19 -6 0 -9 4 -6 9 3 5 -4 11 -15 14 -11 3
-23 15 -26 26 -3 12 -9 21 -14 21 -5 0 -9 8 -9 18 0 14 -2 15 -10 2 -8 -13
-10 -12 -10 3 0 9 -4 17 -10 17 -5 0 -10 7 -10 15 0 8 -5 15 -11 15 -5 0 -7 5
-4 10 3 6 -1 10 -9 10 -9 0 -16 5 -16 11 0 5 -6 7 -12 3 -10 -6 -10 -4 0 8 11
14 10 17 -6 22 -12 4 -22 18 -24 36 -2 16 -1 27 4 24 4 -3 11 2 14 10 3 9 12
16 19 16 7 0 15 9 18 20 3 11 13 20 22 20 10 0 13 5 9 12 -5 7 -2 9 9 5 11 -4
14 -2 10 9 -3 8 -2 14 3 13 5 -1 12 0 17 1 4 1 13 3 20 4 6 1 11 9 11 18 -1
11 5 15 17 13 11 -2 19 1 19 7 0 5 7 7 16 4 11 -4 15 -2 11 8 -4 10 0 14 13
11 11 -2 25 4 32 14 7 10 30 26 51 36 20 9 37 22 37 29 0 7 3 6 9 -2 6 -10 16
-7 42 15 18 15 30 23 26 17 -3 -6 0 -11 8 -11 8 0 13 3 12 6 -1 3 3 8 8 10 6
2 16 11 23 20 10 12 12 12 6 1 -7 -13 -5 -13 8 -2 9 7 29 14 46 15 21 1 28 6
24 16 -4 10 -1 13 11 8 10 -4 17 -1 18 6 0 8 2 8 6 -1 4 -10 10 -9 26 5 11 10
17 13 14 6 -5 -8 0 -11 12 -10 16 1 18 4 8 16 -9 12 -9 13 1 7 6 -4 12 -3 12
1 0 5 20 8 45 8 24 -1 42 2 39 7 -6 9 7 11 44 10 12 -1 20 3 17 8 -6 10 14 8
33 -3 7 -5 14 -2 18 7 4 12 11 13 24 6 13 -7 21 -5 30 5 10 12 16 13 28 3 10
-8 13 -9 9 -2 -10 16 18 25 33 11 10 -9 11 -9 6 0 -5 9 1 12 23 9 16 -2 35 1
43 5 7 5 14 4 16 -1 2 -6 9 -7 15 -3z m264 -422 c0 -8 -4 -12 -9 -9 -5 3 -6
10 -3 15 9 13 12 11 12 -6z m-381 -141 c-4 -10 -2 -13 7 -7 16 10 37 13 36 5
-3 -20 2 -25 11 -12 6 9 10 10 10 3 0 -6 -5 -15 -11 -18 -6 -5 -4 -12 8 -22
10 -8 12 -12 6 -8 -11 5 -18 -8 -10 -18 1 -2 -4 -11 -12 -21 -12 -15 -12 -16
5 -10 16 6 17 5 7 -7 -15 -16 -17 -33 -3 -24 6 3 10 4 10 0 0 -3 -10 -10 -22
-15 -18 -7 -19 -9 -5 -9 9 -1 17 -6 17 -12 0 -5 -4 -8 -9 -5 -5 4 -7 -3 -4
-14 3 -11 2 -28 -2 -37 -12 -28 -14 -44 -4 -37 13 8 11 -10 -3 -24 -7 -7 -8
-12 -2 -12 5 0 10 -9 10 -20 0 -11 -5 -20 -10 -20 -5 0 -6 -3 -3 -6 3 -4 2
-16 -4 -27 -7 -13 -7 -17 -1 -13 6 3 13 2 16 -3 3 -5 -1 -12 -9 -15 -12 -4
-13 -10 -5 -25 13 -24 13 -34 1 -26 -6 3 -6 -7 -1 -26 7 -23 6 -28 -3 -21 -9
8 -12 4 -13 -14 -1 -13 2 -24 8 -24 5 0 6 5 2 12 -5 7 -3 8 6 3 10 -6 9 -11
-5 -22 -12 -8 -14 -13 -6 -13 11 0 11 -3 1 -15 -7 -9 -8 -15 -2 -15 5 0 8 -9
5 -20 -3 -11 -10 -17 -17 -13 -8 5 -8 3 1 -8 12 -15 13 -69 1 -69 -5 0 -8 -5
-8 -11 0 -5 5 -7 12 -3 7 4 8 3 4 -5 -4 -6 -9 -33 -12 -59 -2 -26 -5 -52 -6
-58 -1 -7 -15 -20 -31 -29 -21 -13 -28 -14 -22 -4 6 11 5 12 -6 2 -19 -19 -32
-16 -24 5 5 14 4 15 -7 4 -10 -10 -15 -8 -26 10 -11 19 -12 19 -7 3 6 -18 5
-18 -15 3 -22 23 -36 30 -24 11 4 -8 0 -8 -15 0 -11 7 -21 15 -21 19 0 4 -14
13 -32 20 -25 9 -34 9 -40 -1 -6 -8 -8 -5 -6 8 2 14 -3 21 -20 23 -13 2 -25 9
-28 17 -3 7 -14 11 -25 8 -11 -3 -19 0 -19 6 0 7 -4 9 -10 6 -5 -3 -10 -1 -10
6 0 6 -8 9 -20 6 -11 -3 -18 -1 -14 4 5 8 -17 13 -32 7 -4 -2 -11 7 -15 20 -5
13 -14 20 -19 17 -6 -4 -17 -1 -25 5 -12 10 -15 10 -15 -1 -1 -10 -4 -8 -11 4
-5 9 -7 23 -3 30 5 8 2 7 -9 -2 -11 -8 -17 -9 -17 -3 0 6 -6 9 -14 6 -8 -3
-17 0 -22 7 -5 8 -3 10 6 4 9 -5 11 -4 6 4 -6 9 -11 9 -24 -1 -12 -10 -14 -10
-8 0 7 12 -4 16 -33 13 -7 -2 -10 2 -6 8 3 6 -1 11 -9 11 -9 0 -16 5 -16 11 0
5 -4 8 -9 4 -5 -3 -16 2 -24 10 -9 8 -23 15 -31 15 -9 0 -16 5 -16 11 0 5 -5
7 -10 4 -6 -3 -13 1 -16 9 -3 9 -10 16 -16 16 -5 0 -6 -4 -3 -10 3 -5 1 -10
-4 -10 -13 0 -14 13 -3 24 4 4 7 13 7 19 1 7 6 11 13 10 7 -2 11 1 9 5 -2 8
53 79 59 75 2 -2 3 0 2 3 -2 3 8 12 22 19 14 8 22 14 18 15 -4 0 0 9 9 20 14
16 20 17 32 7 12 -9 13 -9 7 1 -4 6 -2 12 3 12 6 0 11 7 11 16 0 10 6 14 14
11 8 -3 17 1 20 9 3 9 11 12 17 8 7 -4 9 -3 6 3 -4 6 1 17 10 24 14 12 16 12
8 -1 -8 -13 -6 -13 8 -1 9 7 14 18 10 24 -3 5 -1 7 5 3 6 -3 13 -2 17 4 4 6
11 7 17 4 8 -5 9 -1 5 10 -4 10 -3 15 3 11 6 -3 10 -1 10 5 0 6 4 9 10 5 5 -3
18 3 28 13 10 10 23 17 29 15 6 -2 15 1 19 8 5 8 3 9 -6 4 -8 -5 -11 -4 -7 2
3 5 20 9 37 8 16 -1 30 2 30 7 0 5 5 6 12 2 6 -4 8 -3 5 3 -6 10 27 27 46 24
4 -1 7 7 7 17 0 13 2 14 9 3 6 -9 11 -10 15 -2 4 6 12 9 17 6 5 -4 9 -2 9 4 0
6 7 8 15 5 8 -4 15 -1 15 6 0 6 5 8 10 5 6 -3 10 -1 10 4 0 6 5 11 11 11 5 0
7 -6 4 -12 -4 -7 1 -4 9 6 12 15 16 16 17 5 0 -10 2 -10 6 -1 2 6 16 12 29 12
13 0 24 5 24 11 0 7 10 9 25 7 13 -3 22 -2 20 3 -3 4 3 10 12 12 10 3 20 5 22
6 2 0 0 -6 -3 -15z m498 4 c-5 -7 -2 -9 8 -5 9 3 21 0 27 -6 8 -8 11 -7 11 3
0 9 7 7 23 -7 12 -11 28 -18 35 -16 6 3 12 1 12 -4 0 -5 14 -8 30 -7 17 1 33
-3 37 -9 4 -6 1 -7 -8 -2 -8 5 -10 4 -6 0 8 -9 26 -14 64 -18 13 -1 23 -7 23
-14 0 -6 4 -15 10 -18 6 -4 7 1 4 12 -5 16 -4 16 8 2 7 -9 21 -15 30 -13 10 1
16 -3 15 -9 -1 -7 4 -11 11 -9 6 1 12 -2 12 -8 0 -5 7 -7 15 -4 8 4 17 -1 21
-9 3 -9 14 -14 25 -12 11 2 17 0 14 -6 -4 -5 -1 -9 6 -9 6 0 18 -8 26 -17 8
-10 11 -12 8 -4 -5 9 1 8 19 -4 14 -9 23 -22 19 -29 -3 -6 -3 -8 2 -4 4 4 14
3 22 -3 7 -6 13 -8 13 -3 0 5 6 -2 13 -16 7 -14 21 -24 31 -23 9 0 15 -1 12
-4 -6 -7 40 -53 54 -53 5 0 10 -5 10 -10 0 -6 6 -9 13 -8 6 2 11 -3 9 -11 -2
-9 3 -11 13 -7 9 3 13 2 10 -3 -3 -5 -1 -12 5 -16 6 -4 7 -12 3 -18 -4 -8 -1
-7 9 1 14 11 17 10 23 -7 3 -12 11 -21 16 -21 6 0 8 -4 5 -9 -3 -5 1 -12 10
-15 8 -3 12 -10 9 -16 -3 -5 0 -7 9 -4 11 4 13 0 9 -18 -9 -34 -22 -47 -45
-43 -13 3 -18 0 -15 -9 4 -9 0 -12 -12 -9 -10 2 -25 -3 -34 -12 -9 -9 -20 -14
-24 -12 -11 7 -33 -19 -25 -29 4 -5 -1 -3 -10 4 -14 11 -20 10 -40 -10 -13
-13 -30 -23 -38 -23 -8 -1 -14 -6 -13 -12 1 -6 -6 -9 -19 -5 -14 3 -19 1 -14
-6 5 -8 -2 -12 -18 -12 -14 0 -26 -5 -26 -11 0 -5 -4 -7 -10 -4 -5 3 -10 1
-10 -5 0 -7 -7 -10 -15 -6 -8 3 -15 2 -15 -2 0 -4 -9 -13 -21 -20 -17 -11 -20
-11 -14 0 3 7 1 6 -7 -2 -7 -9 -20 -15 -28 -15 -8 0 -23 -8 -33 -18 -10 -10
-22 -15 -27 -12 -6 4 -10 2 -10 -4 0 -5 -9 -8 -20 -6 -11 2 -23 -1 -26 -7 -5
-7 -2 -8 6 -3 8 5 11 4 6 -3 -3 -6 -20 -13 -36 -17 -17 -4 -30 -12 -30 -18 0
-7 -4 -6 -10 3 -8 13 -10 12 -10 -4 0 -13 -5 -17 -20 -13 -12 3 -17 1 -14 -5
3 -5 -3 -12 -15 -15 -12 -3 -21 -9 -21 -14 0 -5 -5 -9 -11 -9 -5 0 -7 6 -3 13
6 9 4 9 -7 1 -16 -13 -52 -10 -57 6 -2 5 -9 7 -15 3 -7 -4 -7 0 1 9 12 14 10
16 -10 11 -18 -4 -20 -3 -8 6 12 8 12 11 1 11 -11 0 -11 3 -1 15 10 12 10 15
0 15 -10 0 -10 3 -1 14 9 11 9 16 0 21 -8 6 -7 10 2 16 8 5 9 9 3 9 -13 0 -12
38 0 59 6 9 5 12 -2 7 -7 -4 -10 3 -8 21 1 16 -2 34 -7 41 -5 6 -6 12 -1 12 5
0 7 22 6 50 -2 27 -8 48 -13 44 -5 -3 -6 2 -3 10 3 9 10 13 15 10 5 -3 6 2 3
10 -3 9 -10 16 -15 16 -5 0 -9 5 -9 11 0 5 4 8 9 4 5 -3 13 -1 16 5 4 6 3 10
-2 9 -20 -3 -25 2 -13 16 10 12 10 15 -1 15 -10 0 -10 3 -2 11 13 13 6 42 -8
33 -16 -10 -9 8 8 21 13 9 13 14 3 20 -9 6 -11 4 -5 -6 5 -8 4 -11 0 -6 -12
10 -14 47 -2 40 5 -3 5 2 -1 13 -5 11 -8 36 -7 57 1 20 -1 37 -6 37 -5 0 -4
11 1 25 6 17 6 25 -1 25 -6 0 -7 5 -4 10 3 6 0 10 -7 11 -7 0 -4 4 7 9 11 5
15 9 9 9 -7 1 -15 8 -18 17 -3 8 -2 12 4 9 6 -4 9 3 6 17 -3 21 14 33 72 47 2
1 0 -4 -4 -11z m106 -14 c0 -8 -19 -13 -24 -6 -3 5 1 9 9 9 8 0 15 -2 15 -3z
m1002 -23 c15 8 19 8 14 0 -4 -6 -2 -11 4 -11 13 0 40 -25 40 -37 0 -4 18 -23
40 -42 22 -19 40 -41 40 -48 0 -7 7 -13 16 -13 14 0 14 -3 4 -15 -11 -13 -10
-14 4 -9 11 4 16 1 16 -10 0 -9 5 -16 10 -16 6 0 10 -7 10 -15 0 -8 5 -15 10
-15 6 0 10 -7 10 -15 0 -8 5 -15 11 -15 6 0 9 -8 6 -19 -3 -12 1 -18 12 -17 9
0 15 -5 13 -13 -1 -7 7 -22 19 -32 15 -13 18 -19 8 -20 -10 0 -11 -2 -1 -6 6
-2 12 -11 12 -19 0 -8 5 -14 10 -14 6 0 10 -7 10 -16 0 -8 4 -12 10 -9 5 3 7
0 4 -8 -3 -8 2 -22 12 -31 9 -10 17 -28 17 -41 0 -14 3 -22 8 -20 4 3 13 -4
19 -16 10 -17 9 -20 -2 -13 -8 5 -7 1 3 -12 26 -32 34 -48 18 -39 -8 5 -5 -2
6 -15 13 -15 15 -21 5 -16 -8 4 -6 0 4 -8 12 -9 14 -16 7 -16 -9 0 -8 -5 3
-16 19 -19 21 -28 4 -18 -10 6 -10 5 -1 -8 7 -8 10 -18 6 -21 -3 -4 0 -7 7 -7
7 0 10 -3 7 -7 -4 -3 -1 -13 6 -21 10 -13 9 -14 -3 -7 -11 7 -10 2 4 -19 11
-18 13 -25 5 -21 -8 5 -4 -3 8 -16 16 -18 19 -28 12 -41 -7 -12 -7 -18 0 -18
6 0 8 -7 5 -15 -4 -9 0 -15 7 -15 11 0 11 -3 -1 -10 -13 -9 -13 -10 0 -10 13
0 13 -1 0 -10 -12 -8 -12 -10 5 -11 l20 0 -20 -9 -20 -9 20 0 c17 -1 17 -3 5
-11 -12 -8 -12 -10 5 -10 17 0 17 -2 5 -10 -8 -5 -10 -10 -5 -10 6 0 10 -19 9
-43 0 -23 4 -50 9 -61 7 -13 6 -16 -3 -11 -9 6 -9 2 -1 -14 9 -16 9 -21 -1
-21 -10 0 -10 -3 1 -9 8 -5 11 -16 8 -24 -3 -8 0 -20 6 -27 10 -10 8 -11 -7
-6 -20 7 -20 7 0 -15 10 -12 13 -19 7 -15 -7 4 -13 3 -13 -1 0 -5 6 -15 13
-22 10 -11 9 -13 -4 -8 -9 3 -16 0 -16 -9 0 -7 4 -11 8 -9 4 3 7 -20 8 -50 0
-39 -3 -54 -11 -49 -7 5 -8 2 -2 -7 12 -20 14 -39 3 -39 -6 0 -6 -6 0 -17 7
-13 5 -23 -5 -35 -12 -12 -12 -18 -3 -24 8 -5 10 -3 4 6 -5 8 -4 11 3 6 6 -4
9 -13 6 -21 -4 -8 -11 -12 -16 -9 -6 4 -5 -3 1 -15 9 -16 9 -21 -1 -21 -9 0
-9 -3 0 -12 9 -9 8 -16 -6 -32 -9 -11 -11 -16 -5 -12 9 5 11 2 7 -8 -3 -9 -10
-14 -14 -11 -4 3 -7 -11 -5 -30 2 -22 -1 -35 -8 -35 -8 0 -7 -3 2 -9 11 -7 9
-10 -8 -16 -12 -3 -19 -11 -16 -16 6 -8 -27 -14 -50 -9 -5 1 -16 3 -22 3 -7 0
-13 4 -13 9 0 10 -27 11 -33 1 -2 -5 -2 -3 -1 4 4 15 -21 24 -33 12 -6 -6 -14
-4 -22 5 -11 12 -17 13 -35 4 -19 -10 -20 -10 -7 5 12 15 10 17 -17 17 -17 0
-34 5 -38 11 -4 7 -10 7 -16 1 -11 -11 -58 5 -58 20 0 4 -7 8 -15 8 -9 0 -12
6 -8 17 4 11 3 14 -5 9 -9 -5 -9 -1 -2 18 5 14 7 33 3 43 -5 13 -3 15 13 9 15
-6 17 -5 7 5 -14 14 -18 43 -5 36 4 -3 8 6 8 19 1 14 -2 21 -8 18 -6 -4 -2 6
8 22 18 29 18 29 -1 14 -19 -14 -19 -14 -6 3 7 9 10 17 5 17 -4 0 -3 5 4 12 9
9 9 15 -1 27 -10 12 -9 14 6 8 13 -5 16 -3 10 6 -11 17 -11 29 0 51 6 13 6 16
-2 12 -6 -4 -11 -3 -11 3 0 5 5 13 11 17 7 4 8 9 0 17 -7 7 -7 16 0 30 8 13 8
17 1 13 -7 -4 -9 4 -8 21 2 16 -1 36 -6 47 -7 12 -7 16 0 12 5 -3 13 1 16 10
3 8 2 13 -2 10 -4 -3 -13 4 -20 14 -9 14 -9 21 0 26 6 4 8 3 4 -4 -3 -6 -3
-13 2 -16 4 -2 8 4 9 14 1 10 -5 21 -13 24 -9 4 -12 11 -7 18 13 22 13 40 -1
29 -8 -7 -12 -4 -12 10 0 10 4 19 9 19 5 0 4 7 -3 15 -7 8 -9 15 -6 15 4 0 4
6 -1 13 -11 17 -10 40 2 56 7 11 7 13 -2 7 -18 -10 -39 4 -22 15 12 7 12 9 0
9 -7 0 -11 6 -7 15 3 8 1 15 -4 15 -6 0 -10 5 -10 11 0 5 4 8 8 5 5 -3 9 1 9
8 0 8 -7 12 -15 9 -12 -5 -12 -2 -3 15 8 15 8 23 -1 28 -7 5 -8 3 -3 -6 5 -9
4 -11 -4 -6 -6 4 -9 12 -5 17 3 5 -6 32 -20 58 -14 27 -22 52 -18 56 4 5 1 5
-5 1 -7 -4 -13 -2 -13 4 0 6 -6 8 -12 4 -10 -5 -10 -4 -1 6 10 11 9 16 -5 27
-9 8 -11 12 -4 8 6 -3 12 -1 12 4 0 6 -8 11 -17 11 -9 0 -14 3 -10 6 3 4 -1
13 -9 21 -8 8 -12 19 -9 24 4 5 -1 9 -10 9 -9 0 -13 5 -10 10 3 6 1 10 -5 10
-6 0 -9 4 -6 9 3 5 -3 11 -14 14 -13 3 -18 10 -14 21 4 11 0 16 -12 17 -12 0
-14 3 -6 6 9 3 7 10 -9 24 -12 10 -18 19 -14 19 4 0 -2 8 -13 19 -12 10 -19
21 -15 25 3 3 -1 6 -11 6 -9 0 -14 5 -11 10 3 6 -2 10 -11 10 -10 0 -14 3 -11
6 4 4 -3 15 -15 25 -14 13 -16 19 -7 19 11 0 11 2 -1 10 -11 7 -11 10 -2 10 7
0 11 4 7 9 -3 6 4 15 15 21 11 6 20 17 20 25 0 8 5 15 11 15 15 0 59 47 59 62
0 6 3 8 7 5 3 -4 16 7 28 23 12 16 25 27 28 23 4 -3 7 -1 7 6 0 7 5 9 10 6 6
-4 10 -3 9 2 -3 20 2 34 11 28 5 -3 15 6 22 21 7 14 14 21 16 15 3 -8 9 -8 24
0z m-2692 -13 c0 -5 10 -19 21 -31 12 -12 18 -16 14 -8 -6 10 -4 12 4 7 7 -5
10 -14 7 -22 -3 -9 0 -11 11 -7 11 4 14 2 9 -5 -4 -7 -1 -12 8 -12 9 0 16 -7
16 -17 0 -9 3 -14 6 -10 7 7 42 -26 37 -35 -2 -5 6 -8 19 -9 13 0 17 -3 10 -6
-6 -2 -9 -9 -6 -14 3 -6 12 -5 21 3 14 11 15 10 9 -9 -5 -16 -2 -25 14 -33 11
-6 18 -15 15 -21 -4 -5 -2 -9 4 -9 6 0 7 -7 4 -17 -4 -10 -2 -14 4 -10 7 5 9
0 6 -14 -4 -16 -8 -17 -14 -7 -7 10 -9 9 -9 -4 0 -10 -5 -18 -11 -18 -6 0 -8
-7 -5 -16 3 -8 2 -13 -2 -10 -4 2 -18 -11 -31 -30 -13 -18 -28 -31 -34 -27 -6
3 -7 1 -3 -5 4 -7 2 -12 -5 -12 -8 0 -8 -4 1 -16 8 -8 9 -14 4 -13 -21 4 -35
-2 -29 -11 3 -5 1 -10 -4 -10 -6 0 -11 -7 -11 -16 0 -8 -4 -13 -9 -10 -8 5
-27 -26 -19 -31 2 -1 -5 -8 -14 -15 -9 -7 -18 -20 -20 -28 -2 -8 -8 -19 -15
-25 -6 -5 -13 -21 -15 -35 -2 -14 -10 -31 -18 -38 -13 -10 -12 -11 5 -7 16 5
15 3 -3 -6 -13 -7 -21 -18 -18 -26 3 -7 1 -13 -4 -13 -5 0 -6 -7 -3 -17 4 -11
3 -14 -5 -9 -7 4 -13 2 -13 -3 -3 -21 -4 -26 -12 -38 -5 -8 -3 -13 4 -13 7 0
4 -7 -7 -15 -10 -8 -14 -15 -9 -15 6 0 3 -5 -5 -10 -11 -7 -12 -10 -2 -10 10
0 9 -4 -2 -16 -9 -8 -14 -20 -11 -24 3 -5 -3 -28 -14 -50 -10 -22 -15 -38 -10
-34 14 9 10 -9 -8 -35 -9 -14 -11 -21 -4 -17 9 6 10 0 5 -21 -4 -15 -11 -30
-16 -32 -5 -1 -1 -9 8 -15 13 -10 14 -15 4 -21 -9 -6 -11 -4 -5 6 7 12 5 12
-6 1 -9 -8 -10 -15 -4 -20 6 -4 11 -13 13 -21 3 -12 1 -12 -14 0 -16 13 -16
12 -6 -8 10 -18 9 -24 -4 -31 -15 -8 -15 -10 0 -15 12 -5 15 -3 10 6 -4 6 -3
8 1 4 12 -10 15 -38 4 -31 -5 3 -9 -10 -9 -30 0 -19 6 -37 13 -40 6 -3 1 -3
-13 0 -14 3 -20 2 -14 -3 5 -4 11 -28 11 -53 1 -60 2 -62 11 -56 5 3 9 -2 9
-10 0 -8 -6 -13 -13 -10 -9 3 -9 -2 1 -22 17 -35 28 -125 15 -117 -15 9 -12
-2 5 -18 19 -19 28 -67 12 -64 -7 1 -11 -4 -9 -10 1 -7 -3 -13 -9 -13 -6 0 -9
-6 -6 -14 4 -10 0 -12 -14 -9 -11 3 -19 0 -19 -7 0 -10 -3 -10 -14 -1 -10 9
-16 9 -21 1 -5 -8 -11 -8 -21 1 -12 10 -13 9 -8 -6 5 -12 4 -16 -4 -11 -6 4
-24 -1 -39 -11 -15 -10 -24 -12 -20 -5 5 6 4 12 -2 12 -6 0 -11 -4 -11 -8 0
-5 -6 -9 -12 -10 -45 -6 -58 -9 -65 -17 -5 -4 -2 -5 6 0 9 5 12 4 7 -3 -3 -6
-18 -9 -31 -6 -14 2 -25 0 -25 -6 0 -5 -5 -10 -11 -10 -5 0 -8 4 -5 8 3 4 -9
7 -25 6 -17 -1 -28 0 -26 3 3 2 -1 16 -8 30 -8 15 -12 30 -9 35 3 4 0 8 -6 8
-7 0 -9 8 -5 20 4 13 2 20 -7 20 -8 0 -9 3 -3 8 6 4 10 17 11 28 0 16 -4 20
-15 16 -14 -5 -14 -3 -2 11 11 14 11 17 0 18 -12 0 -12 1 0 6 11 4 11 7 0 14
-9 5 -12 27 -11 66 1 43 -1 54 -9 43 -9 -12 -10 -11 -4 5 12 36 13 51 5 65 -5
7 -4 24 1 37 5 15 5 23 -2 23 -6 0 -6 8 2 21 6 12 7 19 2 16 -5 -3 -9 3 -9 13
0 10 4 16 8 14 11 -7 10 4 -3 28 -6 12 -7 18 -1 14 6 -3 9 11 7 39 -1 27 2 45
9 45 6 0 4 5 -4 10 -12 8 -12 10 -1 10 11 0 11 3 1 15 -10 12 -10 15 4 15 9 0
16 5 16 11 0 5 -4 8 -8 5 -5 -3 -8 6 -8 20 1 14 8 29 16 34 11 7 12 10 2 10
-9 0 -10 5 -4 16 5 9 7 25 5 34 -3 10 0 21 7 25 8 5 7 11 -2 23 -12 14 -10 14
12 2 21 -11 23 -11 14 1 -13 16 -15 49 -3 49 4 0 6 9 4 20 -2 11 2 20 8 20 7
0 6 4 -3 10 -10 6 -11 10 -3 10 7 0 12 3 12 8 -4 21 2 32 13 26 8 -5 9 -2 4
11 -4 11 -2 22 6 27 10 6 10 10 -2 18 -13 8 -12 10 3 10 10 0 15 4 12 10 -3 5
1 20 10 33 8 13 12 27 8 30 -3 4 0 7 8 7 11 0 11 2 -1 10 -10 6 -11 10 -2 10
6 0 12 7 12 16 0 8 4 13 9 9 5 -3 13 0 17 6 4 8 3 9 -4 5 -7 -4 -12 -3 -12 3
0 5 4 12 10 16 5 3 7 12 4 20 -4 8 1 17 9 21 9 3 13 12 10 20 -3 8 0 14 7 14
6 0 9 4 6 9 -3 5 1 12 9 15 8 3 14 9 14 13 -3 13 14 47 30 61 9 8 10 10 3 7
-11 -6 -12 -3 -3 13 6 11 15 22 20 24 4 1 36 45 69 95 71 109 87 127 104 117
8 -5 7 0 -2 11 -8 10 -10 16 -3 12 7 -5 17 1 23 13 6 11 15 18 21 15 5 -4 8
-1 7 7 -2 7 3 12 11 10 8 -2 11 3 8 11 -4 10 4 14 29 14 19 0 34 -4 34 -9z
m3294 -36 c3 -5 -1 -9 -9 -9 -8 0 -12 4 -9 9 3 4 7 8 9 8 2 0 6 -4 9 -8z
m-184 -42 c0 -5 -5 -10 -11 -10 -5 0 -7 5 -4 10 3 6 8 10 11 10 2 0 4 -4 4
-10z m-740 -3 c0 -2 -10 -12 -22 -23 l-23 -19 19 23 c18 21 26 27 26 19z
m-2274 -719 c-7 11 -4 12 13 3 11 -7 21 -17 21 -23 0 -6 3 -8 7 -4 4 3 13 -4
20 -16 7 -13 12 -17 13 -10 0 7 14 -2 31 -20 18 -18 29 -28 25 -21 -12 22 42
-12 65 -41 11 -14 25 -26 31 -26 6 0 0 9 -13 21 -13 11 -2 6 25 -13 27 -18 51
-39 53 -45 3 -7 9 -10 14 -7 5 3 9 -2 9 -10 0 -9 6 -13 13 -10 8 3 20 -3 28
-13 13 -17 13 -17 -6 -3 -17 12 -18 12 -7 0 13 -15 17 -16 48 -19 8 0 13 -5 9
-10 -3 -5 11 -15 30 -21 19 -6 38 -16 41 -22 5 -7 2 -8 -6 -3 -8 5 -11 4 -6
-3 4 -6 13 -9 21 -6 7 3 18 -4 25 -15 6 -11 15 -20 20 -18 5 1 16 -7 25 -18 9
-11 14 -13 10 -5 -4 9 -1 8 8 -3 9 -10 19 -19 24 -20 4 -1 7 -7 7 -13 -1 -6
10 -11 25 -10 20 1 25 -4 23 -17 -2 -9 1 -17 5 -16 23 4 32 -2 26 -18 -4 -11
-3 -14 5 -9 23 14 12 -15 -15 -41 -16 -15 -22 -23 -14 -18 10 5 12 4 7 -3 -4
-7 -14 -12 -22 -12 -8 0 -17 -6 -20 -14 -3 -8 -13 -17 -21 -20 -12 -5 -13 -3
-7 7 5 7 0 3 -11 -10 -12 -13 -26 -23 -32 -23 -6 0 -18 -10 -27 -22 -9 -13
-14 -17 -11 -11 4 8 1 11 -9 7 -9 -3 -14 -10 -11 -14 3 -5 -10 -14 -29 -21
-19 -7 -33 -15 -31 -19 2 -3 -6 -12 -18 -20 -21 -12 -21 -12 -7 6 16 21 -37
-22 -56 -45 -6 -8 -16 -11 -21 -8 -6 4 -13 -3 -17 -16 -5 -17 -8 -19 -15 -8
-7 11 -10 9 -16 -8 -3 -11 -13 -21 -21 -21 -8 0 -17 -7 -21 -16 -3 -8 -12 -13
-20 -10 -8 3 -11 1 -8 -4 3 -6 -1 -10 -9 -10 -8 0 -20 -8 -25 -17 -6 -10 -11
-14 -11 -9 0 5 -8 2 -17 -5 -15 -12 -16 -12 -8 1 4 8 -5 0 -22 -17 -23 -26
-32 -30 -42 -20 -10 9 -11 8 -6 -5 4 -11 2 -18 -5 -18 -6 0 -8 -5 -4 -12 5 -7
3 -8 -5 -3 -7 4 -22 -2 -37 -16 -13 -13 -24 -17 -24 -10 0 8 -7 10 -20 6 -18
-6 -22 -1 -19 21 0 4 -3 10 -8 13 -15 11 -38 45 -25 37 16 -9 16 6 0 23 -7 8
-8 11 -2 8 6 -3 11 0 11 8 0 8 -4 12 -8 9 -18 -10 -31 36 -14 48 6 5 6 8 -2 8
-7 0 -13 5 -13 11 0 5 6 7 13 4 6 -4 5 -1 -3 7 -17 15 -22 98 -6 98 6 0 3 5
-6 11 -19 11 -25 39 -8 39 7 0 7 6 1 18 -7 13 -6 23 2 32 10 10 9 12 -5 7 -12
-4 -15 -2 -11 9 3 8 0 21 -6 28 -10 12 -8 14 11 9 14 -3 18 -1 11 4 -6 5 -16
20 -22 34 -7 20 -6 30 7 43 14 13 14 16 2 16 -13 0 -13 2 0 10 13 8 13 13 2
31 -12 19 -12 21 2 16 14 -6 15 -3 5 14 -8 15 -8 19 0 15 6 -4 11 -3 11 3 0 5
-6 11 -12 14 -9 3 -10 8 -3 18 6 8 10 29 10 47 0 17 2 32 5 32 9 0 6 33 -5 49
-6 11 -4 13 9 8 14 -6 15 -4 5 16 -12 21 -11 21 6 7 17 -14 18 -14 6 8 -8 15
-8 22 -1 22 6 0 8 5 5 10 -3 6 0 10 7 10 9 0 9 3 -2 10 -13 9 -13 10 0 11 10
0 11 2 3 6 -7 2 -13 10 -13 16 0 5 3 7 7 4 9 -9 32 24 33 46 0 10 5 15 10 12
6 -3 10 -1 10 6 0 8 5 7 17 -2 14 -12 15 -12 9 -1z m2487 -3 c8 -8 18 -11 22
-7 5 4 5 2 1 -5 -3 -6 -2 -14 3 -17 5 -3 7 -15 4 -26 -3 -12 0 -20 8 -20 7 0
9 -3 6 -7 -4 -3 1 -16 10 -27 17 -20 17 -20 1 -7 -22 16 -24 8 -3 -12 8 -8 15
-35 17 -61 2 -25 7 -46 12 -46 6 0 5 -5 -1 -11 -9 -9 -9 -16 0 -31 10 -15 9
-21 -3 -29 -11 -8 -9 -9 10 -3 21 6 23 5 13 -8 -7 -8 -10 -18 -6 -22 10 -10
12 -56 1 -50 -4 3 -4 -6 2 -20 7 -19 6 -26 -3 -26 -8 0 -8 -3 -2 -8 14 -9 17
-50 4 -57 -5 -4 -6 -12 -2 -18 11 -17 10 -61 -2 -69 -6 -5 -4 -8 5 -8 13 0 13
-1 0 -10 -11 -7 -11 -10 -2 -10 7 0 10 -5 7 -10 -4 -6 -10 -8 -14 -6 -4 3 -6
-5 -5 -17 1 -12 3 -22 4 -22 1 0 3 -8 5 -18 2 -10 -1 -14 -7 -10 -8 4 -9 -4
-5 -25 4 -17 2 -34 -3 -37 -6 -3 -10 -22 -10 -41 0 -19 -4 -33 -9 -30 -5 4 -7
-3 -4 -14 4 -17 2 -19 -13 -13 -17 6 -17 5 -5 -11 10 -12 11 -20 3 -28 -6 -6
-8 -17 -5 -24 3 -9 -1 -14 -12 -14 -9 0 -14 -4 -11 -9 10 -16 -5 -39 -22 -36
-9 2 -25 4 -35 4 -10 1 -16 4 -14 9 2 4 -10 18 -27 32 l-31 24 20 -24 20 -24
-26 20 c-15 10 -25 22 -22 27 2 4 -3 7 -12 7 -10 0 -13 5 -9 13 4 6 4 9 -1 5
-4 -4 -15 -2 -23 5 -13 10 -14 9 -7 -2 5 -10 4 -12 -3 -7 -7 4 -12 14 -12 22
0 8 -4 14 -10 14 -5 0 -7 -8 -3 -17 3 -10 -5 -3 -18 16 -13 19 -32 35 -41 37
-20 2 -50 29 -42 36 2 3 -7 4 -21 3 -14 -2 -23 1 -19 6 3 5 -8 15 -24 22 -16
6 -27 17 -25 24 3 8 -3 11 -17 8 -11 -2 -18 0 -15 6 4 5 -2 9 -11 9 -10 0 -14
3 -11 7 7 7 -72 48 -86 44 -5 -1 -6 3 -2 9 3 5 -1 10 -9 10 -9 0 -16 4 -16 9
0 5 -9 11 -21 14 -13 4 -18 10 -13 18 4 7 3 10 -3 6 -6 -4 -22 5 -36 19 -16
16 -31 23 -39 18 -7 -4 -10 -4 -6 0 4 5 -2 18 -13 29 -11 12 -17 27 -15 34 3
6 0 14 -7 17 -7 2 -4 5 5 5 10 1 20 12 24 27 5 19 9 22 15 12 7 -10 9 -9 9 4
0 12 5 15 17 11 11 -4 14 -3 9 5 -4 7 -1 12 7 12 8 0 18 7 21 16 3 9 11 12 18
8 8 -5 9 -2 5 10 -6 14 -3 17 9 12 10 -4 23 2 34 14 10 12 27 22 38 23 13 1
18 6 14 16 -3 9 -1 12 5 8 6 -4 18 -1 26 7 8 8 17 12 21 9 3 -4 6 -2 6 4 0 6
9 13 21 16 12 3 18 10 14 16 -5 10 7 15 28 12 4 0 7 4 7 9 0 5 4 9 9 7 5 -1
23 10 40 26 17 15 31 25 31 23 0 -3 12 6 26 19 15 14 32 22 38 18 6 -3 8 -3 4
2 -11 12 21 38 38 31 11 -4 15 -2 11 8 -4 10 -1 13 9 9 7 -3 14 0 14 6 0 6 6
11 13 11 7 0 20 9 30 20 9 11 23 17 31 14 8 -3 17 0 22 7 5 8 3 10 -7 5 -8 -4
-5 0 5 8 24 20 31 20 49 1z m-1303 -18 c0 8 7 10 17 6 23 -9 66 -8 81 1 7 4
12 3 12 -3 0 -6 7 -8 16 -4 9 3 20 0 25 -8 7 -12 9 -12 9 0 0 11 4 10 16 -5 8
-10 13 -13 9 -7 -4 9 -1 11 9 7 9 -3 16 -10 16 -14 0 -4 13 -7 29 -6 20 1 28
-3 27 -14 -1 -8 5 -14 12 -13 6 2 12 -2 12 -8 0 -5 5 -7 10 -4 6 3 10 1 10 -6
0 -7 3 -10 6 -6 8 8 42 -26 36 -37 -3 -5 3 -6 14 -2 10 4 15 4 12 0 -9 -9 15
-33 26 -26 5 3 6 0 2 -6 -3 -6 2 -15 11 -21 10 -6 14 -11 10 -11 -5 0 5 -17
22 -37 16 -20 28 -40 25 -44 -2 -4 5 -24 16 -45 12 -20 19 -39 16 -41 -3 -3
-1 -14 5 -24 7 -14 6 -19 -2 -19 -8 0 -9 -4 0 -13 6 -8 8 -17 4 -20 -3 -4 0
-7 8 -7 11 0 11 -2 -1 -10 -12 -8 -13 -13 -3 -29 8 -12 9 -22 3 -26 -5 -3 -10
-16 -10 -28 0 -57 -4 -87 -12 -87 -5 0 -6 -4 -3 -10 3 -5 2 -10 -3 -10 -6 0
-13 -7 -16 -16 -3 -8 -2 -12 4 -9 5 3 7 -1 4 -9 -3 -8 -12 -17 -20 -20 -8 -3
-14 -13 -14 -21 0 -10 -5 -13 -12 -9 -9 5 -9 2 1 -9 12 -15 11 -17 -3 -17 -9
0 -16 -4 -16 -10 0 -5 -13 -23 -29 -39 -16 -16 -26 -32 -23 -35 3 -3 -4 -6
-16 -6 -11 0 -24 -5 -28 -12 -5 -7 -2 -8 7 -3 8 5 11 4 6 -1 -5 -5 -12 -9 -15
-10 -18 -2 -48 -19 -55 -30 -4 -7 -14 -11 -22 -8 -8 4 -15 1 -15 -5 0 -6 -7
-11 -15 -11 -8 0 -15 -6 -15 -12 0 -9 -4 -8 -10 2 -5 8 -10 10 -10 3 0 -6 -11
-10 -25 -8 -14 1 -25 -2 -25 -7 0 -5 -4 -6 -10 -3 -5 3 -10 0 -11 -7 0 -10 -2
-11 -6 0 -4 10 -8 10 -20 1 -12 -10 -16 -10 -24 2 -6 10 -9 11 -9 1 0 -8 -5
-10 -12 -6 -19 12 -48 12 -48 0 0 -6 -4 -5 -9 3 -5 8 -16 11 -25 8 -8 -3 -18
-2 -21 4 -4 5 -11 7 -16 4 -5 -4 -9 -1 -9 6 0 8 -4 8 -12 1 -9 -7 -17 -6 -25
3 -6 7 -9 15 -7 18 3 3 -6 4 -19 3 -14 -2 -31 1 -39 6 -9 7 -7 8 7 3 15 -4 17
-3 9 5 -6 6 -21 12 -33 13 -11 1 -21 5 -21 10 0 4 -4 5 -10 2 -5 -3 -10 0 -10
8 0 8 -14 20 -32 28 -17 7 -26 15 -20 17 14 4 -10 32 -28 32 -6 0 -9 4 -5 9 3
5 -1 16 -9 24 -8 8 -12 17 -9 21 4 3 1 6 -5 6 -7 0 -12 5 -12 11 0 6 -7 17
-15 25 -8 8 -12 21 -9 29 4 9 0 15 -10 15 -10 0 -13 5 -9 17 4 10 2 14 -5 9
-7 -4 -10 3 -8 21 1 16 -2 34 -7 41 -6 7 -6 12 0 12 14 0 9 35 -8 56 -8 10 -9
15 -2 11 8 -5 11 1 9 20 -1 16 1 38 5 49 4 13 3 26 -4 33 -8 8 -8 11 2 11 8 0
11 6 7 16 -4 10 0 18 12 21 13 3 18 12 16 29 -1 13 2 24 7 24 6 0 7 5 3 12 -5
7 -2 9 9 5 11 -4 14 -2 10 9 -3 7 0 14 7 14 6 0 8 5 5 10 -3 6 -1 10 4 10 6 0
10 6 8 13 -1 6 4 11 11 10 6 -2 12 2 12 7 0 6 0 12 0 15 0 12 42 45 50 40 5
-3 7 0 4 8 -3 8 0 18 7 23 8 5 10 3 4 -6 -5 -9 -4 -11 3 -6 7 4 12 14 12 22 0
8 4 12 10 9 5 -3 20 1 33 10 13 8 27 12 31 8 4 -5 6 -1 4 7 -2 10 3 14 15 12
10 -2 26 5 35 15 9 11 13 13 8 6 -7 -10 -4 -12 10 -7 10 4 24 11 31 16 7 6 17
7 22 4 5 -4 13 -1 17 5 4 8 9 7 15 -2 6 -10 9 -10 9 -2z m-2015 -287 c3 -5 1
-10 -4 -10 -6 0 -11 5 -11 10 0 6 2 10 4 10 3 0 8 -4 11 -10z m3076 -537 c13
-16 12 -17 -3 -4 -17 13 -22 21 -14 21 2 0 10 -8 17 -17z m-1287 -124 c-5 -8
10 -13 30 -10 5 1 6 -7 3 -19 -4 -14 0 -20 11 -20 13 0 12 -3 -4 -16 -10 -8
-14 -13 -8 -10 7 3 14 -3 17 -14 3 -11 1 -20 -5 -20 -5 0 -6 -6 -1 -12 11 -20
13 -67 2 -74 -6 -4 -4 -13 6 -24 12 -13 13 -23 5 -44 -6 -18 -6 -25 0 -21 14
9 12 -8 -2 -24 -11 -11 -10 -12 1 -6 10 6 12 2 6 -14 -4 -13 -2 -21 6 -21 9 0
8 -4 -1 -15 -8 -10 -9 -15 -1 -15 7 0 8 -8 1 -25 -6 -16 -6 -26 1 -31 6 -4 5
-11 -3 -22 -7 -9 -8 -13 -2 -9 15 9 23 -43 12 -72 -4 -13 -4 -20 1 -17 18 11
20 -26 4 -52 -16 -24 -16 -26 -1 -14 14 11 16 11 13 -5 -2 -10 -4 -18 -5 -18
-1 0 -3 -12 -4 -27 -1 -14 3 -24 8 -21 5 4 7 -3 4 -15 -4 -13 -1 -22 5 -23 8
0 8 -2 0 -6 -7 -2 -13 -9 -13 -14 0 -6 3 -8 8 -6 4 3 6 -11 5 -31 -2 -51 -6
-65 -23 -80 -11 -10 -11 -12 -1 -6 10 5 12 3 7 -5 -6 -9 -11 -9 -22 0 -7 6
-11 16 -7 22 3 6 1 7 -6 3 -6 -4 -9 -10 -7 -14 2 -4 -6 -7 -19 -7 -19 0 -21 3
-12 14 9 12 9 13 0 7 -8 -4 -13 -2 -13 6 0 9 -3 9 -8 2 -9 -14 -59 -11 -74 4
-7 7 -18 12 -26 12 -7 0 -11 4 -8 9 3 4 -8 7 -24 5 -16 -2 -32 1 -35 6 -4 6
-11 8 -16 5 -5 -4 -9 -1 -9 4 0 6 -7 11 -15 11 -8 0 -15 5 -15 11 0 8 -6 7
-17 -2 -11 -10 -14 -10 -9 -1 4 7 1 12 -9 12 -10 0 -13 5 -9 13 6 9 4 9 -8 -1
-13 -10 -18 -10 -24 -1 -5 8 -3 10 7 5 8 -4 5 0 -6 8 -11 9 -25 14 -32 12 -7
-3 -16 2 -21 10 -5 9 -13 17 -18 17 -5 1 -8 6 -6 11 2 5 -4 4 -12 -4 -11 -8
-16 -9 -16 -1 0 6 -7 11 -15 11 -8 0 -15 5 -15 10 0 6 -7 10 -16 10 -10 0 -14
6 -11 14 4 9 1 13 -6 10 -7 -2 -25 7 -41 21 -16 13 -33 22 -39 18 -6 -3 -7 -1
-3 5 4 7 2 12 -4 12 -6 0 -8 5 -4 12 4 7 3 8 -5 4 -6 -4 -14 0 -17 8 -3 9 -12
16 -20 16 -8 0 -14 5 -14 10 0 6 -7 10 -16 10 -8 0 -12 5 -9 10 3 6 -1 10 -10
10 -9 0 -13 5 -10 10 3 6 2 10 -4 10 -5 0 -23 12 -38 27 -15 14 -22 23 -14 18
10 -5 12 -4 7 3 -4 7 -17 12 -29 13 -12 0 -16 3 -9 6 10 4 7 9 -8 20 -21 15
-21 16 -3 36 10 11 12 17 6 13 -9 -5 -11 -2 -7 8 3 9 10 13 15 10 5 -3 9 0 9
6 0 6 4 9 9 5 5 -3 13 0 16 6 4 5 13 8 20 5 7 -2 16 2 19 10 3 9 10 12 16 9 5
-3 10 -1 10 6 0 8 4 8 16 -1 8 -8 14 -9 12 -3 -2 6 -1 10 2 9 11 -3 38 29 32
39 -3 6 2 4 11 -4 13 -11 17 -11 17 -1 0 8 3 11 6 8 3 -4 14 2 25 13 10 10 25
16 34 13 14 -6 20 6 16 30 -1 5 5 4 13 -4 10 -7 16 -8 16 -2 0 6 9 9 19 7 15
-3 19 1 16 17 -3 16 -2 19 6 11 13 -13 42 -5 33 8 -3 5 -2 8 3 7 4 -1 23 6 42
16 18 10 30 13 27 8 -4 -6 2 -8 14 -5 11 3 18 9 15 13 -3 5 -1 11 5 15 5 3 10
0 10 -7 1 -8 6 -6 15 6 8 11 15 17 15 13 0 -4 10 -1 23 8 13 8 27 12 32 8 4
-5 5 0 2 9 -5 15 -2 16 19 8 14 -6 23 -7 21 -2 -2 4 4 15 15 25 12 11 18 13
19 5 0 -9 2 -9 6 1 5 11 7 11 14 0 6 -10 9 -8 9 9 0 13 3 21 8 19 4 -3 16 -1
27 3 23 8 47 2 39 -11z m639 -1 c9 -8 14 -18 12 -20 -3 -3 2 -5 10 -5 8 0 12
5 8 10 -3 5 4 4 15 -2 11 -6 22 -16 24 -21 2 -6 13 -12 25 -13 12 0 19 -5 16
-10 -3 -4 2 -7 10 -5 9 2 23 -6 32 -17 9 -11 14 -14 10 -7 -3 6 -1 12 4 12 6
0 11 -5 11 -11 0 -5 5 -7 10 -4 6 3 10 -1 10 -9 0 -9 5 -16 11 -16 5 0 7 6 3
13 -6 9 -5 9 8 0 8 -7 18 -10 21 -6 4 3 7 1 7 -6 0 -7 5 -9 12 -5 8 5 9 2 5
-10 -6 -14 -3 -17 9 -12 9 4 23 1 30 -5 8 -6 14 -8 14 -4 0 5 9 -2 19 -14 12
-14 22 -18 26 -11 4 7 11 5 21 -5 9 -8 19 -13 24 -10 5 3 12 0 16 -6 5 -8 3
-9 -6 -4 -9 6 -11 4 -6 -4 5 -7 14 -10 22 -7 8 3 14 1 14 -5 0 -6 7 -9 15 -6
8 4 17 1 21 -5 5 -7 2 -8 -6 -3 -9 5 -11 4 -6 -3 4 -7 14 -12 23 -12 9 0 24
-7 34 -16 9 -8 24 -16 32 -18 8 -1 21 -7 28 -12 26 -21 42 -28 35 -16 -5 8 -2
10 8 6 9 -3 13 -11 9 -17 -4 -6 0 -8 10 -4 10 3 17 2 17 -3 0 -6 7 -10 16 -10
14 0 14 -3 4 -15 -10 -12 -10 -15 1 -15 8 0 3 -9 -11 -20 -14 -11 -22 -20 -18
-20 4 0 1 -8 -7 -17 -8 -10 -21 -27 -30 -38 l-15 -20 6 20 6 20 -13 -20 c-8
-11 -14 -24 -14 -30 0 -5 -4 -11 -10 -11 -24 -4 -54 -17 -51 -23 2 -3 -6 -15
-17 -26 -11 -11 -16 -13 -12 -5 4 8 -8 -2 -28 -23 -22 -24 -41 -36 -48 -31 -9
5 -10 2 -6 -9 3 -9 3 -16 -1 -15 -15 3 -62 -22 -62 -33 0 -6 -7 -8 -16 -5 -8
3 -12 2 -9 -4 5 -9 -15 -15 -37 -11 -4 0 -5 -5 -2 -13 3 -8 0 -17 -7 -22 -8
-4 -10 -3 -5 4 4 7 1 12 -8 12 -8 0 -16 -5 -18 -10 -2 -6 -13 -12 -25 -12 -14
-2 -19 -7 -15 -17 3 -9 1 -12 -6 -7 -6 4 -24 -1 -39 -11 -21 -14 -25 -15 -19
-3 4 8 0 6 -8 -4 -9 -11 -16 -16 -16 -12 0 5 -8 2 -17 -5 -14 -12 -16 -12 -9
1 4 8 1 7 -7 -3 -11 -14 -16 -15 -20 -5 -4 9 -6 8 -6 -3 -1 -11 -10 -15 -31
-14 -16 1 -27 -2 -24 -6 6 -10 -35 -24 -59 -20 -10 1 -25 -3 -33 -9 -8 -7 -14
-9 -14 -5 0 4 -8 1 -17 -6 -9 -8 -14 -9 -11 -4 4 6 -2 11 -12 11 -15 0 -17 -3
-8 -16 7 -8 2 -6 -11 6 -25 23 -42 92 -19 78 10 -6 10 -4 -1 9 -11 14 -11 20
0 34 12 15 12 16 -1 8 -13 -8 -13 -7 -1 8 9 12 10 17 2 17 -7 0 -9 5 -4 13 11
17 11 30 -1 46 -9 12 -8 13 3 6 11 -6 13 -4 8 7 -3 9 1 27 8 42 8 15 10 24 6
21 -5 -3 -11 2 -15 10 -3 8 0 15 6 15 7 0 7 4 0 13 -6 7 -7 18 -2 26 4 8 5 21
2 30 -5 14 -4 14 13 1 17 -14 18 -14 6 8 -6 12 -16 22 -22 22 -6 0 -4 7 5 15
9 9 13 28 11 50 -2 24 0 33 8 28 7 -4 6 1 -2 10 -7 9 -9 17 -3 17 12 0 10 33
-3 42 -6 5 -6 8 1 8 6 0 10 14 9 33 -2 17 2 40 7 51 7 13 7 16 -1 12 -14 -9
-14 0 -1 24 7 13 7 21 0 25 -7 4 -7 12 -2 18 10 14 10 27 -1 45 -5 7 -3 12 5
12 9 0 9 3 -2 10 -10 6 -11 10 -2 10 6 0 11 3 10 8 -2 4 5 16 15 27 22 25 86
27 110 3z m-1787 -51 c8 3 17 -3 21 -13 3 -11 10 -22 15 -25 5 -3 10 -15 11
-27 0 -11 5 -18 9 -16 4 3 8 -4 8 -16 0 -12 5 -18 10 -15 6 4 9 -3 6 -17 -4
-27 11 -61 24 -53 5 3 7 -4 5 -15 -2 -11 0 -20 6 -20 5 0 9 -7 9 -15 0 -8 6
-15 14 -15 8 0 18 -5 22 -12 4 -7 3 -8 -4 -4 -7 4 -12 2 -12 -3 0 -6 7 -11 15
-11 14 0 19 -12 16 -32 0 -5 4 -8 10 -8 6 0 8 -7 5 -17 -4 -10 -4 -14 0 -11 9
10 34 -17 34 -36 0 -9 6 -15 13 -14 6 2 11 -3 9 -9 -1 -7 5 -13 13 -13 8 0 14
-6 13 -12 -2 -7 3 -12 10 -10 8 1 11 -1 9 -5 -3 -5 1 -17 9 -28 8 -10 14 -16
14 -12 0 4 11 -3 24 -15 13 -13 21 -26 19 -30 -2 -5 3 -8 11 -8 9 0 16 -7 16
-17 0 -9 3 -14 6 -10 4 3 24 -12 44 -33 21 -22 44 -40 50 -40 6 0 8 -4 5 -10
-3 -5 1 -10 9 -10 9 0 16 -5 16 -11 0 -6 7 -9 15 -6 8 4 17 1 21 -5 4 -7 3 -8
-4 -4 -7 4 -12 5 -12 2 0 -3 10 -10 21 -17 17 -9 20 -8 14 3 -4 7 3 1 16 -13
24 -26 29 -29 50 -29 5 0 7 -4 4 -10 -3 -5 1 -10 9 -10 9 0 16 -5 16 -11 0 -5
5 -7 10 -4 6 3 10 2 10 -3 0 -13 50 -33 62 -26 7 4 8 2 4 -4 -4 -7 -1 -12 9
-12 9 0 13 -5 10 -11 -4 -6 -1 -10 6 -8 32 4 60 -2 54 -11 -6 -9 7 -13 47 -13
10 0 15 -3 13 -7 -3 -4 4 -10 15 -13 11 -3 18 -2 15 2 -2 4 2 8 10 8 8 0 13
-5 12 -11 -1 -6 8 -11 20 -10 12 0 20 -3 18 -7 -8 -13 22 -18 35 -6 10 9 11 9
5 -2 -6 -11 -4 -13 8 -8 10 3 17 2 17 -4 0 -6 4 -8 9 -5 5 4 12 0 15 -6 5 -10
7 -10 12 -1 3 7 12 9 20 6 7 -3 12 -9 9 -13 -3 -5 4 -6 16 -3 12 4 25 0 30 -8
6 -10 9 -10 9 -1 0 6 5 12 11 12 6 0 8 -7 5 -16 -5 -13 -3 -14 7 -6 15 13 58
12 50 0 -2 -5 8 -6 23 -2 20 5 25 4 19 -6 -6 -9 -3 -10 14 -1 16 9 21 9 21 0
0 -8 4 -8 15 1 12 10 15 10 16 -1 0 -12 1 -12 6 0 4 10 7 10 13 1 6 -9 12 -9
30 0 15 8 20 8 16 1 -9 -13 4 -14 23 -2 9 6 22 6 31 1 11 -6 21 -5 28 2 9 9
12 9 12 -1 0 -10 6 -10 24 3 18 11 27 13 32 4 5 -7 3 -8 -6 -3 -9 6 -11 4 -6
-4 6 -9 12 -8 26 4 13 12 20 13 25 5 5 -9 10 -9 18 -1 15 15 30 14 22 -1 -4
-7 0 -5 9 6 8 10 22 16 31 13 8 -4 15 -1 15 5 0 6 6 5 17 -3 12 -10 15 -11 9
-1 -6 9 -1 11 18 8 14 -3 26 0 26 5 0 5 11 9 25 9 14 0 25 6 26 13 0 9 2 9 6
-1 4 -10 8 -10 19 -1 7 6 21 9 29 5 9 -3 13 -2 10 4 -3 6 3 10 15 10 12 0 19
4 16 9 -4 5 5 8 19 6 14 -1 25 1 25 5 0 5 15 7 34 6 25 -1 32 2 25 10 -6 8 -3
13 11 17 13 3 18 1 14 -6 -3 -7 2 -3 10 7 9 11 16 16 16 10 0 -5 7 0 15 10 11
14 15 16 15 5 1 -10 3 -9 11 4 6 9 14 15 20 12 5 -4 9 1 9 9 0 9 6 13 14 10 8
-3 17 0 21 5 3 6 11 8 17 5 6 -4 8 -2 5 3 -4 6 0 16 8 23 8 7 15 9 15 5 0 -4
6 -2 13 4 8 6 17 7 21 3 4 -4 6 0 4 8 -2 9 4 14 14 14 10 -1 16 1 13 5 -7 13
32 40 44 30 6 -5 9 -6 6 -3 -5 8 25 39 39 39 6 1 10 6 8 13 -2 11 11 16 31 13
4 0 7 4 7 9 0 6 14 24 30 40 17 16 30 34 30 39 0 5 5 13 12 17 7 5 8 3 3 -6
-5 -9 -4 -11 3 -6 7 4 12 13 12 21 0 8 5 17 12 21 7 5 8 3 3 -6 -5 -9 -4 -11
3 -6 7 4 12 14 12 23 0 9 3 14 6 10 8 -8 34 18 34 33 0 6 5 8 12 4 8 -5 9 -2
5 10 -4 10 -3 15 3 11 6 -3 10 -1 10 5 0 6 4 9 9 6 5 -4 7 4 3 16 -3 14 -1 19
6 14 7 -4 14 3 18 19 3 14 10 25 15 25 5 0 8 3 7 8 -2 4 7 17 20 30 12 12 20
27 17 31 -2 5 2 11 10 15 8 3 15 13 15 22 0 9 8 23 18 31 9 8 11 11 4 8 -11
-6 -11 -3 -1 13 7 12 18 18 24 14 5 -3 3 3 -5 13 -14 17 -13 18 3 12 15 -6 17
-3 12 13 -4 11 -2 20 4 20 6 0 10 5 9 12 -2 7 2 12 9 13 6 0 15 4 20 9 5 5 3
6 -4 2 -21 -12 -15 12 7 27 11 8 17 17 12 22 -4 4 7 1 23 -8 23 -11 36 -12 49
-5 12 7 17 7 12 0 -3 -5 1 -15 9 -22 12 -10 15 -10 15 1 0 11 2 11 8 2 4 -7
18 -11 30 -8 12 2 21 -1 19 -7 -1 -6 11 -12 26 -13 16 -1 33 -8 38 -16 7 -12
9 -12 9 1 0 9 3 11 8 5 4 -5 16 -11 27 -13 34 -5 46 -12 40 -21 -3 -6 4 -8 15
-6 11 2 18 0 15 -4 -3 -5 2 -12 11 -15 14 -5 14 -9 3 -23 -8 -10 -9 -14 -2
-10 6 4 15 3 18 -3 4 -6 3 -10 -2 -9 -22 4 -30 -3 -28 -23 1 -14 -6 -28 -19
-36 -20 -13 -20 -13 -1 -8 18 5 18 5 4 -6 -9 -7 -15 -23 -14 -35 1 -12 -2 -20
-7 -17 -4 3 -8 0 -8 -6 0 -6 -4 -8 -10 -5 -6 4 -10 -7 -10 -25 0 -18 -4 -29
-10 -25 -9 6 -14 -10 -13 -42 0 -6 -6 -9 -15 -6 -9 4 -13 2 -9 -3 7 -12 -27
-67 -35 -59 -3 3 -8 -1 -11 -9 -4 -9 -1 -14 6 -12 7 1 9 1 5 -1 -4 -3 -17 -22
-29 -43 -12 -22 -27 -36 -32 -33 -6 4 -8 0 -4 -11 5 -11 3 -15 -5 -10 -7 5 -9
2 -5 -9 4 -11 2 -14 -9 -10 -8 3 -14 2 -13 -3 4 -16 -13 -44 -22 -38 -5 3 -9
-2 -9 -10 0 -8 -9 -20 -21 -26 -11 -7 -18 -14 -15 -17 3 -4 -3 -13 -14 -20
-11 -8 -17 -19 -14 -25 5 -8 1 -9 -10 -5 -14 5 -17 3 -12 -8 3 -9 0 -15 -10
-15 -8 0 -13 -4 -9 -9 3 -6 -4 -15 -16 -22 -18 -9 -19 -13 -8 -21 10 -6 7 -7
-10 -3 -19 6 -23 4 -18 -9 4 -10 1 -16 -8 -16 -8 0 -15 -4 -15 -10 0 -5 -7
-10 -15 -10 -8 0 -15 -5 -15 -10 0 -6 -11 -15 -25 -22 -13 -6 -22 -15 -19 -19
5 -8 -10 -13 -29 -10 -5 1 -6 -3 -3 -8 8 -12 -18 -33 -29 -23 -5 4 -6 3 -3 -3
3 -5 -4 -19 -15 -30 -11 -12 -17 -14 -13 -5 4 8 -2 4 -13 -9 -12 -13 -21 -20
-21 -15 0 4 -9 -2 -20 -14 -12 -12 -29 -22 -39 -22 -11 0 -21 -7 -25 -15 -3
-8 -10 -14 -15 -13 -5 2 -17 -6 -26 -17 -9 -11 -13 -13 -9 -5 7 13 5 13 -9 1
-9 -7 -15 -17 -12 -21 2 -4 -3 -7 -13 -7 -34 0 -42 -3 -42 -18 0 -9 -6 -12
-17 -8 -10 4 -14 2 -9 -5 4 -7 -1 -10 -13 -7 -11 2 -22 -3 -25 -11 -3 -9 -10
-12 -16 -9 -5 3 -10 2 -10 -3 0 -6 -11 -13 -25 -16 -14 -4 -25 -11 -25 -17 0
-6 -7 -6 -20 1 -16 9 -19 8 -13 -6 4 -12 3 -15 -6 -10 -7 5 -18 1 -26 -10 -7
-11 -17 -16 -21 -11 -4 4 -2 7 4 7 7 0 12 6 12 13 -1 6 -10 1 -20 -12 -11 -13
-20 -18 -20 -11 0 8 -4 9 -12 3 -7 -5 -24 -10 -37 -11 -13 0 -29 -6 -35 -13
-8 -9 -7 -10 3 -4 10 6 12 4 7 -4 -6 -9 -11 -9 -22 0 -11 9 -14 9 -14 0 0 -7
-4 -9 -10 -6 -5 3 -10 0 -10 -7 0 -8 -3 -9 -8 -3 -11 15 -32 17 -30 3 2 -8 -8
-12 -24 -12 -16 1 -28 -2 -28 -7 0 -4 -9 -6 -20 -4 -11 2 -20 0 -20 -5 0 -4
-9 -6 -20 -3 -13 3 -20 0 -20 -8 0 -11 -2 -11 -10 1 -5 8 -10 10 -10 4 0 -7
-13 -14 -30 -16 -16 -3 -30 -1 -30 4 0 5 -5 6 -10 3 -6 -4 -8 -11 -5 -16 3 -5
-1 -6 -9 -3 -9 3 -13 11 -10 18 3 6 0 4 -8 -4 -9 -10 -32 -15 -75 -14 -36 0
-60 -4 -56 -9 3 -5 -3 -5 -13 1 -11 6 -27 7 -42 1 -13 -5 -28 -6 -33 -3 -6 3
-17 0 -25 -7 -12 -10 -15 -10 -12 1 2 7 -7 13 -19 15 -13 1 -23 -3 -23 -8 0
-6 -10 -2 -22 9 -20 18 -21 18 -15 1 4 -12 3 -16 -4 -11 -6 3 -34 8 -62 9 -29
2 -53 4 -54 4 -2 1 -4 0 -5 -1 -2 -1 -14 4 -27 11 -14 8 -21 9 -17 2 8 -13 4
-14 -18 -5 -9 3 -14 9 -11 13 2 4 -2 8 -10 8 -8 0 -11 -5 -8 -10 3 -5 0 -7 -8
-5 -8 3 -13 11 -11 18 2 10 0 11 -10 2 -8 -6 -19 -7 -27 -2 -8 4 -20 6 -28 3
-7 -3 -13 -1 -13 3 0 5 -11 10 -25 10 -14 1 -22 -2 -19 -7 9 -15 -3 -10 -17 8
-10 11 -10 14 -1 9 6 -4 12 -2 12 3 0 14 -17 14 -25 1 -5 -8 -11 -7 -21 1 -8
6 -14 8 -14 4 0 -4 -8 -1 -17 6 -11 9 -14 10 -9 2 5 -9 2 -11 -8 -7 -9 3 -13
10 -10 15 4 8 -17 14 -38 10 -5 0 -8 2 -8 7 0 4 -15 8 -32 9 -18 2 -34 7 -36
13 -3 7 -9 6 -20 -2 -10 -8 -13 -9 -9 -1 5 7 -1 13 -15 15 -13 2 -22 9 -21 15
1 7 -6 9 -20 5 -20 -5 -21 -4 -8 12 13 15 12 16 -12 7 -22 -8 -28 -6 -41 14
-8 12 -21 23 -28 22 -33 -1 -49 4 -42 14 4 7 -2 9 -17 7 -15 -2 -23 2 -22 9 2
7 -6 17 -17 23 -11 6 -20 7 -20 3 0 -4 -4 -3 -8 2 -12 17 -56 51 -48 38 13
-23 -4 -14 -34 17 -17 17 -30 25 -31 18 0 -7 -4 -3 -9 10 -5 12 -16 22 -25 22
-8 0 -15 5 -15 10 0 6 -7 10 -17 10 -9 0 -14 3 -10 6 7 8 -15 33 -25 28 -3 -2
-18 10 -32 27 -14 17 -26 27 -26 24 0 -4 -9 3 -21 16 -11 13 -17 18 -13 10 5
-9 3 -12 -4 -7 -7 4 -12 14 -12 22 0 9 -5 12 -12 8 -8 -5 -9 -2 -5 10 4 9 3
15 -2 12 -5 -3 -12 1 -15 10 -3 8 -11 12 -17 8 -8 -4 -9 -3 -5 4 4 7 2 12 -4
12 -6 0 -8 5 -5 10 6 9 -8 14 -28 11 -5 -1 -6 3 -2 9 3 5 -1 13 -9 16 -9 3
-16 11 -16 18 0 6 -9 17 -20 24 -11 7 -20 16 -20 22 0 12 -53 65 -62 62 -4 -1
-5 5 -1 13 3 9 -4 23 -16 34 -11 10 -18 21 -14 25 3 3 1 6 -6 6 -7 0 -9 5 -6
10 3 6 -1 10 -10 10 -9 0 -13 5 -10 11 4 5 -5 21 -19 34 -15 14 -26 27 -26 30
1 27 -2 34 -13 29 -10 -3 -13 4 -12 25 1 17 -2 28 -6 26 -4 -3 -14 6 -23 20
-12 18 -13 25 -4 25 8 1 7 5 -4 14 -10 7 -15 16 -11 19 3 4 1 7 -5 7 -6 0 -9
9 -7 20 2 11 0 18 -4 15 -5 -3 -11 2 -15 10 -3 8 0 15 7 15 7 0 2 8 -10 18
-15 12 -21 27 -20 52 3 47 14 65 33 49 11 -9 14 -8 14 6 0 9 6 15 12 13 7 -3
19 1 26 9 9 8 19 10 29 5 16 -10 63 7 63 22 0 5 7 3 15 -4 13 -11 14 -10 9 3
-4 12 -1 14 17 10 15 -4 20 -3 15 5 -5 8 -1 10 10 5 11 -4 22 1 30 12 10 14
14 15 14 4 0 -9 3 -10 8 -3 9 14 36 23 40 13 2 -4 10 -5 18 -2z m3104 -1171
c0 -2 -8 -10 -17 -17 -16 -13 -17 -12 -4 4 13 16 21 21 21 13z"/>
<path d="M2296 4248 c6 -10 9 -9 -95 -12 -76 -2 -86 -5 -94 -24 -7 -15 -6 -26
3 -37 18 -21 26 -10 9 12 -13 17 -13 17 7 1 21 -18 49 -25 40 -10 -2 4 4 8 15
8 13 0 22 -9 26 -26 3 -14 10 -30 15 -37 6 -7 3 -15 -9 -22 -16 -9 -16 -10 -1
-11 19 0 21 -36 4 -59 -8 -11 -8 -13 0 -8 7 4 14 0 18 -8 3 -8 0 -15 -7 -15
-8 0 -8 -3 -2 -8 6 -4 10 -17 9 -29 -1 -12 3 -20 7 -17 5 3 9 0 9 -7 0 -8 3
-9 13 0 8 6 17 8 20 4 4 -3 7 1 7 11 0 9 4 15 8 12 5 -3 9 1 9 9 0 8 -3 15 -7
15 -4 0 -7 14 -8 30 0 21 3 28 11 23 7 -3 4 3 -5 14 -21 23 -23 37 -5 28 6 -4
3 1 -7 9 -11 9 -15 16 -9 16 15 0 10 30 -8 41 -11 7 -11 9 0 9 11 0 11 3 0 17
-8 9 -9 14 -2 10 6 -4 19 0 27 9 9 8 16 11 16 5 0 -6 5 -11 11 -11 5 0 7 5 3
11 -5 8 -1 8 14 0 14 -7 23 -8 27 -1 3 5 3 10 -2 11 -4 0 1 4 12 9 16 7 16 9
4 9 -9 1 -20 8 -23 16 -5 13 -10 14 -27 4 -12 -6 -19 -7 -16 -2 4 5 0 10 -8
10 -8 0 -12 -4 -9 -9z"/>
<path d="M2546 4238 c3 -4 -3 -8 -12 -8 -10 0 -14 -3 -11 -7 4 -3 -1 -12 -11
-20 -11 -10 -12 -12 -2 -8 10 4 9 2 -2 -8 -10 -8 -18 -22 -18 -31 0 -10 -5
-14 -12 -10 -6 4 -8 3 -5 -3 3 -5 -1 -22 -8 -37 -8 -16 -13 -32 -10 -36 3 -4
-2 -11 -11 -14 -9 -4 -14 -13 -10 -21 3 -8 1 -15 -4 -15 -6 0 -9 -6 -7 -12 1
-7 -3 -12 -9 -11 -18 3 -24 -35 -8 -48 8 -6 21 -8 31 -4 10 5 23 7 28 6 6 -2
7 1 3 4 -12 12 12 47 28 41 8 -3 14 0 14 6 0 7 4 7 14 -1 10 -9 16 -9 21 -1 5
8 11 8 21 -1 8 -6 14 -8 14 -3 0 5 5 1 11 -8 5 -10 17 -18 24 -18 8 0 15 -9
15 -21 0 -11 5 -17 10 -14 6 3 10 0 10 -7 0 -10 2 -10 9 1 5 8 16 11 24 8 11
-4 13 0 10 14 -3 11 -9 22 -14 25 -5 3 -9 16 -9 30 0 13 -5 24 -11 24 -5 0 -8
4 -4 9 3 5 1 12 -5 16 -6 4 -7 11 -4 17 4 6 0 14 -7 19 -11 7 -11 9 -1 9 9 0
10 5 4 18 -5 9 -8 25 -7 35 2 9 -1 17 -6 17 -5 0 -9 5 -9 11 0 5 6 7 13 4 6
-4 4 0 -5 8 -20 16 -25 32 -6 21 7 -5 8 -3 4 5 -5 7 -14 10 -22 7 -8 -3 -14
-1 -14 5 0 6 -4 7 -10 4 -5 -3 -10 -2 -10 3 0 5 -7 9 -15 9 -8 0 -12 -4 -9 -9z
m37 -111 c-2 -4 0 -14 6 -21 12 -14 11 -43 -3 -64 -6 -11 -14 -8 -34 10 -14
13 -22 17 -18 11 5 -9 2 -11 -8 -7 -12 4 -13 11 -6 24 5 9 6 20 3 24 -3 3 -1
6 5 6 7 0 12 7 12 15 0 10 9 14 24 13 14 -1 22 -6 19 -11z"/>
<path d="M2570 4049 c0 -5 5 -7 10 -4 6 3 10 8 10 11 0 2 -4 4 -10 4 -5 0 -10
-5 -10 -11z"/>
<path d="M1914 4192 c3 -5 -1 -13 -10 -16 -8 -3 -12 -2 -9 3 3 5 -8 3 -25 -5
-16 -9 -30 -20 -30 -25 0 -6 -4 -8 -9 -5 -10 7 -41 -37 -41 -58 0 -8 -7 -21
-15 -30 -11 -10 -12 -17 -4 -22 8 -4 7 -9 -2 -15 -11 -7 -11 -9 -1 -9 7 0 10
-4 7 -10 -3 -5 -2 -10 2 -10 5 0 14 -9 21 -21 10 -16 10 -19 1 -13 -7 4 -4 -4
7 -18 10 -14 22 -24 25 -22 4 2 12 -3 19 -11 7 -8 19 -15 26 -15 8 0 14 -3 14
-7 0 -5 14 -8 30 -8 17 0 30 4 30 8 0 5 5 5 10 2 6 -3 10 -2 10 3 0 6 10 8 22
4 14 -3 19 -2 14 6 -4 7 -2 12 5 12 17 0 56 44 51 58 -2 7 1 12 6 12 6 0 8 8
5 19 -3 10 0 22 6 25 10 7 9 13 -18 65 -7 12 -8 20 -3 17 6 -3 5 5 -1 19 -7
13 -13 20 -15 15 -2 -5 -9 -4 -17 3 -7 7 -10 16 -7 21 3 5 0 6 -6 2 -6 -3 -14
-1 -17 5 -4 5 -13 8 -21 5 -8 -3 -14 0 -14 6 0 6 -3 8 -6 5 -4 -3 -16 -2 -27
4 -12 7 -17 7 -13 1z m44 -64 c-2 -7 5 -12 14 -12 10 1 15 -2 12 -7 -3 -5 -1
-9 5 -9 11 0 41 -56 41 -77 0 -7 -4 -13 -10 -13 -5 0 -10 -5 -10 -10 0 -6 -9
-20 -20 -32 -11 -12 -20 -18 -20 -12 0 5 -4 3 -9 -5 -12 -18 -59 -21 -73 -4
-6 7 -15 10 -21 6 -6 -4 -7 -1 -3 6 5 7 1 17 -9 24 -20 15 -32 77 -15 77 7 0
9 7 6 16 -4 12 -2 15 9 10 8 -3 14 -2 14 2 -3 20 2 33 11 27 6 -3 10 -1 10 5
0 7 6 10 13 7 6 -2 21 -1 32 4 11 4 21 8 23 8 1 1 1 -5 0 -11z"/>
<path d="M2842 4193 c-6 -3 -10 -9 -6 -14 3 -5 1 -9 -4 -9 -6 0 -13 -7 -16
-16 -3 -8 -2 -13 2 -10 5 3 9 -1 9 -9 0 -8 -4 -12 -9 -9 -4 3 -8 -4 -8 -15 0
-12 -4 -21 -10 -21 -5 0 -8 -10 -6 -22 4 -27 -12 -78 -24 -78 -5 0 -7 -8 -6
-17 2 -10 -2 -21 -8 -25 -7 -5 -6 -8 4 -8 13 0 13 -1 0 -10 -13 -9 -13 -11 0
-20 8 -5 21 -8 28 -5 6 2 12 0 12 -5 0 -6 8 -5 19 2 14 9 19 21 16 45 -2 25 3
36 22 48 23 16 25 15 30 -4 3 -12 9 -21 13 -21 4 0 8 -17 9 -37 1 -21 3 -43 3
-50 1 -7 5 -10 10 -7 4 3 8 0 8 -6 0 -6 6 -18 14 -26 12 -12 18 -12 41 0 26
13 26 14 6 21 -18 5 -19 10 -10 27 8 15 8 19 0 13 -20 -12 -10 72 11 89 10 9
18 13 18 11 0 -3 6 0 14 7 10 9 11 15 2 20 -7 5 -7 8 -1 8 6 0 11 20 10 44 0
24 -3 42 -8 39 -4 -2 -10 3 -13 11 -3 9 -10 13 -15 10 -5 -3 -12 1 -15 9 -3 8
-19 14 -37 15 -17 0 -33 6 -35 11 -2 6 -8 9 -13 5 -5 -3 -9 0 -9 5 0 6 -5 11
-11 11 -5 0 -7 -6 -3 -12 6 -10 4 -10 -7 -2 -8 6 -20 9 -27 7z m68 -80 c0 -7
5 -13 11 -13 5 0 7 4 4 10 -3 5 0 7 9 4 8 -3 17 -12 20 -20 3 -9 10 -13 16 -9
6 3 5 -5 -1 -23 -8 -24 -15 -29 -42 -29 -18 1 -39 9 -48 19 -17 19 -15 58 3
58 5 0 7 4 4 8 -3 5 1 9 9 9 8 0 15 -6 15 -14z"/>
<path d="M3125 4079 c1 -10 4 -22 8 -25 4 -4 2 -13 -4 -20 -9 -11 -7 -15 6
-20 13 -5 14 -9 3 -15 -8 -6 -9 -9 -2 -9 7 0 15 -7 18 -16 3 -8 2 -13 -2 -10
-5 3 -9 -1 -9 -9 0 -8 5 -13 10 -12 5 1 11 -6 12 -15 2 -10 -1 -18 -6 -18 -5
0 -9 -7 -9 -15 0 -8 -5 -15 -11 -15 -5 0 -7 -5 -4 -11 4 -5 -6 -22 -22 -36
-15 -14 -21 -22 -13 -18 12 6 13 5 3 -5 -10 -11 -9 -16 5 -27 9 -8 11 -11 3
-7 -8 4 -12 3 -8 -3 3 -5 16 -9 29 -7 13 1 26 3 31 3 4 1 7 10 7 22 0 15 5 19
16 15 8 -3 12 -2 9 3 -3 5 -1 12 5 16 6 4 8 10 5 15 -8 12 48 67 63 62 7 -2
12 2 12 8 0 9 5 9 17 -1 11 -10 14 -10 9 -1 -4 7 -2 12 4 12 6 0 8 5 5 10 -3
6 -1 10 4 10 6 0 11 -6 11 -12 0 -10 3 -9 9 1 5 7 14 10 20 7 11 -7 36 42 26
52 -3 3 -5 -1 -5 -8 0 -9 -5 -7 -14 6 -8 10 -18 16 -22 12 -4 -4 -13 -3 -21 3
-10 9 -13 7 -13 -6 0 -15 -2 -16 -17 -4 -11 10 -14 10 -9 2 4 -8 2 -13 -4 -13
-6 0 -9 -4 -6 -8 3 -5 0 -9 -7 -9 -7 0 -22 -3 -34 -7 -15 -5 -23 -3 -23 4 0 6
5 8 10 5 19 -12 10 7 -12 27 -13 11 -18 17 -12 14 8 -4 11 5 10 23 0 16 -5 27
-10 23 -5 -3 -7 2 -3 12 4 9 3 15 -2 11 -6 -3 -13 0 -18 7 -13 21 -50 18 -48
-3z"/>
<path d="M1580 4048 c0 -5 -4 -6 -10 -3 -5 3 -10 1 -10 -5 0 -6 -4 -8 -10 -5
-5 3 -10 2 -10 -4 0 -6 -6 -8 -14 -5 -7 3 -16 -2 -20 -11 -3 -9 -10 -13 -16
-10 -5 3 -10 1 -10 -5 0 -6 -4 -8 -10 -5 -5 3 -10 1 -10 -6 0 -8 -4 -8 -13 -1
-10 9 -13 5 -13 -16 0 -15 6 -32 13 -37 8 -6 15 -22 17 -37 1 -14 10 -33 19
-43 10 -9 15 -20 12 -25 -3 -5 5 -17 18 -27 13 -10 23 -26 21 -36 -1 -9 2 -17
7 -17 6 0 7 -4 4 -10 -3 -6 4 -10 17 -10 19 0 20 -2 8 -10 -12 -8 -10 -9 8 -7
12 2 29 12 38 23 8 10 12 13 8 5 -4 -9 -3 -12 3 -8 6 4 8 18 6 32 -3 13 -9 23
-13 20 -4 -3 -12 1 -17 8 -11 13 -25 63 -16 53 3 -3 15 1 27 9 20 15 45 21 33
9 -6 -6 16 -34 28 -34 3 0 15 -9 26 -19 17 -16 26 -17 49 -9 21 7 27 14 22 26
-9 25 -28 42 -46 42 -9 0 -16 5 -16 10 0 6 -8 10 -17 10 -15 0 -16 2 -3 10 13
8 12 10 -2 10 -22 0 -23 14 -2 34 14 15 14 17 0 22 -9 3 -16 17 -16 31 0 13
-4 22 -8 19 -5 -3 -14 4 -22 14 -8 10 -17 17 -22 14 -4 -3 -8 -1 -8 4 0 5 -7
9 -15 9 -8 0 -15 -4 -15 -9z m24 -60 c-3 -5 2 -11 10 -14 9 -3 13 -10 10 -15
-3 -5 1 -9 8 -9 10 0 9 -3 -2 -9 -8 -6 -18 -7 -22 -5 -4 3 -5 -2 -2 -10 3 -9
1 -17 -5 -17 -6 -1 -15 -3 -21 -4 -5 -1 -15 -3 -21 -4 -5 0 -7 -5 -4 -11 3 -6
-1 -7 -9 -4 -9 3 -14 10 -11 14 3 5 -2 16 -11 24 -11 12 -12 16 -2 16 10 0 9
3 -2 10 -13 9 -7 14 13 11 4 0 7 3 7 9 0 5 7 7 15 4 9 -4 15 0 15 8 0 7 9 14
19 14 11 0 17 -4 15 -8z"/>
<path d="M4235 2860 c-3 -5 1 -10 10 -10 9 0 13 5 10 10 -3 6 -8 10 -10 10 -2
0 -7 -4 -10 -10z"/>
<path d="M1430 2706 c0 -2 7 -7 16 -10 8 -3 12 -2 9 4 -6 10 -25 14 -25 6z"/>
<path d="M1045 2421 c-3 -5 -2 -12 3 -15 5 -3 9 1 9 9 0 17 -3 19 -12 6z"/>
<path d="M2342 2823 c-6 -2 -10 -9 -7 -13 3 -5 1 -11 -4 -14 -5 -4 -13 -1 -17
5 -5 8 -3 9 6 4 9 -5 11 -4 6 4 -4 6 -13 8 -19 4 -7 -4 -21 -8 -32 -9 -23 -1
-77 -24 -86 -38 -4 -5 -12 -5 -19 -1 -7 5 -11 4 -8 -1 3 -5 0 -15 -8 -22 -8
-7 -14 -10 -14 -7 0 4 -7 0 -15 -9 -8 -8 -15 -19 -15 -24 0 -5 -8 -9 -17 -8
-11 0 -18 -6 -18 -16 0 -9 -9 -27 -21 -40 -11 -13 -23 -32 -27 -41 -3 -9 -11
-17 -16 -17 -5 0 -8 -9 -6 -20 2 -11 0 -22 -5 -25 -5 -3 -7 -14 -5 -25 2 -11
0 -20 -5 -20 -4 0 -11 -7 -14 -16 -4 -10 -2 -13 6 -8 7 5 8 3 3 -6 -12 -20
-15 -110 -3 -110 6 0 5 -6 -2 -15 -7 -8 -8 -15 -3 -15 5 0 10 -6 11 -12 1 -15
10 -53 12 -53 1 0 3 -9 5 -20 2 -11 9 -21 14 -23 6 -2 11 -12 11 -23 0 -10 5
-19 11 -19 5 0 7 -4 4 -10 -3 -5 1 -10 10 -10 11 0 15 -5 12 -14 -5 -13 14
-39 24 -33 2 1 3 0 2 -2 -3 -6 46 -51 57 -51 6 0 8 -6 4 -12 -4 -7 -4 -10 1
-6 4 4 22 0 39 -10 17 -10 38 -18 46 -18 8 1 21 -4 28 -11 8 -7 18 -11 23 -8
5 4 9 1 9 -5 0 -6 5 -8 10 -5 6 4 17 1 25 -5 10 -9 15 -9 15 -1 0 6 8 8 23 3
26 -9 74 -8 84 1 3 4 12 2 19 -4 10 -9 15 -7 20 5 3 9 10 13 15 10 5 -3 9 0 9
6 0 6 4 9 9 6 5 -4 12 0 14 6 4 10 6 10 6 1 1 -9 10 -8 35 2 18 8 37 11 40 7
4 -3 4 2 0 11 -4 12 -2 17 7 15 8 -2 13 3 11 11 -3 12 -1 12 14 0 10 -8 15 -9
12 -4 -7 12 17 37 26 28 3 -4 6 1 6 10 0 9 7 17 16 17 8 0 13 4 9 9 -3 6 4 15
15 21 11 6 20 18 20 28 1 21 25 54 33 45 4 -3 7 5 7 18 0 13 6 36 14 51 10 20
11 29 2 39 -8 9 -8 10 2 5 8 -5 12 3 13 31 0 21 2 48 3 61 2 12 0 22 -3 22 -3
0 -6 15 -5 32 1 18 -2 35 -7 38 -7 5 -19 48 -21 78 -1 6 -8 12 -15 12 -8 0
-12 4 -8 9 3 5 -1 16 -9 24 -8 8 -12 17 -9 21 4 3 -2 6 -11 6 -12 0 -16 5 -12
15 4 11 -3 19 -20 25 -15 6 -24 16 -21 23 3 8 -3 14 -15 14 -11 1 -26 10 -34
20 -7 10 -14 15 -14 11 0 -5 -9 1 -20 12 -12 12 -25 18 -30 15 -6 -4 -10 2
-10 12 0 15 -2 16 -10 3 -8 -12 -10 -12 -10 -1 0 11 -3 11 -15 1 -12 -10 -15
-10 -15 0 0 8 -3 11 -6 8 -3 -4 -17 0 -31 7 -18 10 -32 11 -45 4 -10 -5 -18
-6 -18 -1 0 10 -36 9 -46 -1 -4 -4 -12 -7 -18 -7 -6 0 -4 5 4 10 16 10 4 12
-18 3z m66 -89 c6 -1 10 2 6 7 -3 5 -1 9 5 9 5 0 11 -6 14 -12 3 -10 7 -10 19
-1 13 11 15 7 14 -27 -1 -21 0 -37 3 -34 2 2 10 -1 18 -7 7 -6 13 -8 14 -3 0
5 4 0 8 -10 4 -11 18 -21 32 -23 13 -2 26 -8 27 -13 2 -6 10 -10 19 -10 19 0
43 -24 43 -43 0 -19 24 -39 35 -29 5 4 5 1 1 -6 -4 -7 -1 -26 8 -42 8 -17 11
-28 6 -25 -5 3 -12 1 -15 -5 -4 -6 -3 -10 2 -9 24 4 28 -5 24 -53 -1 -29 -7
-58 -12 -64 -5 -6 -7 -20 -4 -32 2 -12 -1 -25 -7 -28 -7 -5 -8 -2 -3 6 5 8 4
11 -3 7 -5 -4 -8 -16 -5 -27 3 -11 0 -20 -6 -20 -6 0 -16 -12 -21 -26 -6 -14
-14 -23 -19 -20 -5 3 -11 -1 -15 -9 -3 -8 -13 -15 -21 -15 -9 0 -14 -4 -11 -9
5 -8 -29 -25 -46 -22 -5 1 -8 -3 -8 -9 0 -5 -6 -7 -14 -4 -8 3 -17 1 -21 -5
-9 -15 -28 -14 -20 2 4 6 0 4 -8 -5 -8 -10 -16 -15 -19 -13 -10 10 -49 14 -43
4 4 -5 2 -9 -4 -9 -5 0 -15 8 -20 18 -10 16 -10 16 -11 0 0 -10 -4 -18 -9 -18
-6 0 -8 9 -6 21 4 17 2 19 -10 9 -12 -10 -15 -10 -15 1 0 11 -2 11 -10 -1 -8
-13 -10 -12 -10 3 0 10 -4 16 -9 12 -6 -3 -14 3 -20 12 -8 14 -10 15 -11 3 0
-13 -2 -13 -9 0 -6 8 -7 18 -5 22 3 5 2 8 -3 7 -4 -1 -15 -1 -23 0 -13 1 -13
2 0 11 12 8 11 10 -7 10 -21 0 -25 5 -22 27 0 3 -6 10 -15 15 -9 5 -14 13 -11
19 4 5 0 12 -8 15 -8 3 -13 17 -13 32 1 15 -4 37 -11 49 -9 16 -10 24 -1 29 7
5 8 3 3 -6 -5 -8 -4 -11 3 -6 11 6 9 36 -3 56 -3 6 -2 10 4 10 5 0 8 11 6 25
-1 17 4 29 17 36 11 6 18 15 15 22 -5 15 49 67 71 67 11 0 13 3 6 8 -16 10 6
30 29 26 9 -1 17 4 17 12 0 8 6 11 17 7 11 -4 14 -3 9 5 -4 7 -2 12 5 12 7 0
10 11 7 29 -2 17 -1 28 4 25 4 -3 8 -1 8 5 0 11 31 20 45 12 6 -3 16 -6 23 -7z"/>
<path d="M2190 1346 c0 -2 7 -6 15 -10 8 -3 15 -1 15 4 0 6 -7 10 -15 10 -8 0
-15 -2 -15 -4z"/>
<path d="M2055 1080 c3 -5 8 -10 11 -10 2 0 4 5 4 10 0 6 -5 10 -11 10 -5 0
-7 -4 -4 -10z"/>
<path d="M2615 1400 c-3 -5 -1 -10 4 -10 6 0 11 5 11 10 0 6 -2 10 -4 10 -3 0
-8 -4 -11 -10z"/>
<path d="M2745 1090 c-3 -6 1 -7 9 -4 18 7 21 14 7 14 -6 0 -13 -4 -16 -10z"/>
<path d="M1045 1641 c6 -11 4 -13 -8 -8 -10 3 -17 2 -17 -3 0 -6 -6 -9 -12 -7
-7 1 -12 -4 -10 -12 2 -8 -3 -11 -12 -8 -9 4 -18 2 -22 -4 -3 -6 -12 -8 -20
-5 -8 3 -13 0 -11 -7 1 -7 -4 -11 -10 -9 -7 1 -13 -3 -13 -9 0 -6 -7 -8 -16
-5 -8 3 -12 2 -9 -4 3 -6 1 -10 -5 -10 -6 0 -8 -6 -4 -12 4 -7 3 -10 -1 -5 -5
4 -18 -1 -29 -10 -20 -17 -20 -17 -7 2 7 11 2 8 -12 -7 -14 -15 -28 -24 -31
-21 -3 3 -3 -5 -1 -18 3 -13 9 -25 15 -27 6 -2 7 -8 4 -14 -8 -12 27 -7 42 7
7 6 10 13 7 17 -2 4 4 5 13 1 13 -5 15 -3 9 7 -6 10 -4 12 8 7 11 -4 17 -1 17
8 0 15 11 19 39 16 7 -2 10 2 7 8 -6 9 30 27 47 23 4 -1 7 3 7 9 0 5 5 7 10 4
6 -4 9 -1 8 6 -2 7 3 14 10 15 6 1 16 2 21 3 14 2 7 59 -9 74 -10 10 -11 9 -5
-2z"/>
<path d="M4021 1601 c-6 -9 -9 -10 -6 -3 10 21 -4 13 -16 -9 -9 -17 -8 -20 3
-13 10 6 11 5 1 -8 -7 -8 -10 -18 -6 -21 3 -4 -2 -9 -11 -13 -9 -3 -13 -10
-10 -15 5 -8 -3 -11 -22 -8 -4 0 -11 -5 -15 -13 -7 -10 -9 -9 -9 5 0 9 -7 17
-16 17 -8 0 -13 4 -10 9 4 5 -5 8 -19 6 -14 -1 -23 0 -20 3 9 10 -27 41 -41
35 -8 -3 -17 2 -20 11 -3 9 -10 13 -15 10 -5 -3 -9 1 -9 8 0 9 -3 9 -10 -2 -7
-11 -10 -12 -10 -2 0 8 -6 12 -12 9 -7 -2 -12 -9 -11 -15 2 -6 -4 -9 -11 -6
-10 4 -14 0 -12 -12 2 -10 8 -20 14 -22 7 -2 9 -9 5 -15 -3 -7 -3 -9 2 -5 4 4
14 3 22 -3 10 -9 13 -8 13 0 0 7 5 9 10 6 6 -4 7 -11 4 -17 -4 -7 -2 -8 5 -4
6 4 14 0 17 -8 3 -9 10 -16 16 -16 5 0 6 6 2 13 -5 8 -2 8 9 -2 9 -7 17 -20
17 -27 0 -8 5 -14 11 -14 5 0 7 6 3 13 -5 8 -2 8 9 -2 9 -7 17 -10 17 -7 0 4
11 -4 25 -18 14 -14 32 -23 39 -20 8 3 16 -2 19 -13 4 -16 5 -16 6 0 0 9 6 17
12 17 6 0 9 7 5 15 -3 8 -1 15 5 15 6 0 7 5 4 10 -3 6 -2 10 3 10 10 0 56 88
58 112 2 22 -30 29 -45 9z"/>
<path d="M1084 1525 c-4 -8 -11 -12 -17 -8 -6 4 -8 0 -4 -10 4 -10 2 -17 -5
-17 -6 0 -17 -8 -24 -17 -13 -17 -14 -17 -8 2 5 18 3 18 -12 -2 -9 -13 -23
-23 -31 -23 -8 0 -11 -4 -8 -10 6 -9 -8 -14 -27 -11 -5 0 -8 -3 -8 -8 0 -5
-13 -16 -29 -24 -27 -13 -29 -13 -25 2 2 9 -2 3 -10 -14 -15 -32 -11 -55 10
-55 8 0 14 -6 14 -12 0 -10 3 -9 9 1 5 7 14 10 20 7 10 -6 15 6 12 27 0 4 4 8
9 8 6 1 15 2 20 3 6 0 14 6 18 11 4 6 16 17 26 25 16 12 18 12 11 1 -6 -10 -4
-13 6 -9 10 4 15 -1 15 -12 0 -10 -4 -16 -8 -14 -7 5 -12 -18 -9 -38 0 -5 -6
-8 -15 -8 -13 0 -14 -3 -5 -14 9 -11 8 -15 -6 -20 -15 -6 -15 -8 -3 -16 12 -8
12 -10 -3 -16 -15 -5 -15 -9 -5 -22 9 -11 9 -14 1 -9 -22 14 -9 -35 14 -50 16
-11 27 -12 40 -4 10 6 14 11 8 11 -5 0 1 7 13 16 12 8 20 20 16 25 -3 5 -2 8
3 7 15 -4 53 13 48 22 -3 4 3 14 12 21 14 12 16 12 8 -1 -8 -13 -6 -13 8 -1 9
7 14 18 10 24 -4 7 0 8 13 3 10 -4 15 -4 11 0 -11 11 13 34 35 34 17 0 18 2 8
15 -11 13 -10 14 3 9 19 -7 17 16 -2 40 -10 11 -17 13 -26 6 -6 -5 -16 -6 -20
-2 -5 4 -5 -2 -1 -12 5 -16 4 -17 -9 -6 -10 8 -15 9 -15 2 0 -6 -12 -23 -27
-38 -16 -15 -19 -21 -8 -13 18 13 19 13 6 -3 -7 -10 -19 -18 -26 -18 -8 0 -16
-6 -18 -12 -4 -10 -6 -10 -6 0 -1 8 -6 10 -13 6 -9 -5 -9 -2 1 9 7 9 11 17 7
17 -4 0 1 11 10 25 8 13 13 28 10 34 -3 5 1 12 10 15 10 4 14 14 11 26 -3 11
-2 18 3 15 4 -3 10 2 14 10 3 8 0 15 -7 15 -8 0 -6 4 3 10 11 7 11 10 2 10 -7
0 -11 4 -7 9 3 5 1 12 -5 16 -6 4 -8 11 -5 16 4 5 1 9 -4 9 -6 0 -11 -4 -11
-10 0 -5 -5 -10 -11 -10 -5 0 -7 5 -4 10 3 6 4 10 0 10 -3 0 -8 -7 -11 -15z
m157 -142 c13 -16 12 -17 -3 -4 -17 13 -22 21 -14 21 2 0 10 -8 17 -17z"/>
<path d="M3617 1428 c-23 -17 -26 -23 -15 -36 10 -12 10 -14 1 -8 -7 4 -13 2
-13 -3 0 -6 5 -11 10 -11 6 0 10 -7 10 -15 0 -8 4 -15 9 -15 6 0 8 -9 6 -20
-2 -11 0 -18 6 -15 5 4 9 -1 9 -10 0 -10 5 -13 13 -9 6 4 9 4 5 -1 -10 -10 20
-67 32 -60 5 3 7 -4 5 -15 -2 -11 0 -18 6 -15 5 4 9 -1 9 -9 0 -9 5 -16 10
-16 6 0 10 -6 10 -14 0 -7 8 -20 17 -27 9 -8 14 -9 10 -3 -4 7 1 14 13 17 19
5 25 47 7 47 -4 0 -5 5 -2 10 3 6 0 10 -7 10 -8 1 -6 6 6 15 10 7 15 18 11 24
-4 7 0 8 11 4 13 -5 15 -2 10 15 -6 18 -4 21 10 15 13 -5 15 -3 9 7 -6 10 -4
12 8 7 12 -4 17 -1 17 11 0 10 3 13 8 7 4 -6 13 -10 20 -9 6 1 19 2 28 3 8 0
12 6 9 11 -3 6 -2 10 2 10 5 0 9 9 10 21 2 18 0 19 -14 7 -14 -11 -15 -11 -8
1 6 11 3 13 -13 9 -12 -4 -22 -2 -22 3 0 4 -7 5 -17 2 -11 -5 -14 -3 -8 6 5
10 2 11 -14 6 -12 -3 -21 -3 -20 2 3 20 -2 25 -16 13 -11 -9 -15 -10 -15 -1 0
7 -10 11 -22 9 -13 -2 -27 2 -33 9 -5 6 -23 13 -40 15 -16 1 -32 6 -35 10 -3
3 -18 -3 -33 -14z m79 -65 c-10 -11 -37 -12 -30 -2 3 5 12 9 21 9 9 0 13 -3 9
-7z m58 -14 c20 -4 32 -39 14 -39 -6 0 -8 -7 -5 -14 4 -10 1 -13 -9 -9 -8 3
-14 -1 -14 -8 0 -8 -6 -5 -16 7 -8 10 -12 12 -8 4 4 -8 3 -11 -1 -7 -5 4 -10
15 -11 25 -2 9 -8 18 -14 20 -7 3 -5 11 6 23 11 12 21 16 28 10 6 -5 20 -10
30 -12z"/>
<path d="M1265 1300 c-3 -5 -4 -10 0 -10 3 0 1 -10 -6 -21 -6 -12 -7 -19 -1
-16 5 4 18 -1 28 -9 10 -9 12 -13 4 -9 -10 4 -9 2 3 -8 21 -18 21 -28 1 -53
-8 -10 -13 -12 -9 -4 4 8 -1 6 -9 -4 -9 -11 -16 -26 -16 -33 0 -7 -4 -12 -9
-10 -5 1 -11 -2 -12 -8 -7 -17 -51 -60 -62 -60 -6 0 -12 -12 -12 -27 -1 -15 2
-25 7 -22 4 3 8 1 8 -3 0 -5 10 -9 21 -10 24 -2 52 20 41 32 -4 5 0 6 10 2 11
-4 15 -1 14 10 -3 19 35 61 48 55 5 -3 6 0 3 5 -8 12 45 73 63 73 6 0 8 -4 5
-10 -3 -5 1 -10 10 -10 9 0 13 -4 10 -10 -3 -5 -1 -10 6 -10 7 0 21 -8 32 -17
11 -10 17 -13 14 -6 -4 6 0 19 9 27 9 10 11 16 4 16 -7 0 -10 7 -7 14 4 9 -2
17 -14 21 -10 4 -19 11 -19 17 0 6 -3 9 -6 5 -7 -7 -18 2 -77 58 -44 41 -71
53 -82 35z"/>
<path d="M3482 1298 c-7 -7 -12 -17 -12 -24 0 -7 -6 -15 -12 -17 -10 -4 -10
-6 0 -6 7 -1 10 -6 6 -13 -4 -6 -3 -8 3 -5 6 4 19 -4 29 -18 10 -13 21 -22 26
-19 4 3 8 -2 8 -10 0 -9 7 -16 15 -16 8 0 15 -4 15 -10 0 -5 0 -13 0 -17 0
-15 -25 -10 -67 13 -24 12 -43 18 -43 13 0 -6 -5 -7 -10 -4 -6 4 -7 12 -3 18
4 7 0 6 -10 -2 -9 -7 -17 -9 -17 -3 0 19 -33 24 -43 6 -8 -13 -11 -14 -18 -3
-6 10 -9 6 -9 -14 0 -16 9 -40 20 -54 11 -14 17 -30 13 -37 -4 -6 1 -5 10 3
15 12 17 12 11 -3 -3 -9 -1 -16 5 -16 6 0 11 -7 11 -15 0 -9 6 -18 14 -21 8
-3 12 -12 9 -20 -4 -10 0 -12 13 -8 11 4 16 4 12 -1 -4 -4 0 -14 8 -22 8 -8
12 -18 9 -23 -3 -5 4 -11 15 -15 11 -3 20 -11 20 -16 0 -5 9 -4 19 3 21 13 35
48 19 48 -5 0 -7 3 -5 8 3 4 -1 13 -9 20 -8 7 -14 11 -14 8 0 -3 -12 7 -26 21
-20 20 -23 28 -12 35 9 7 7 8 -9 5 -19 -4 -20 -3 -10 14 6 10 15 19 20 19 4 0
5 -4 2 -10 -3 -6 1 -7 9 -4 10 4 16 1 16 -9 0 -10 9 -13 27 -11 16 1 36 -5 47
-14 11 -9 16 -11 12 -5 -5 9 -2 11 8 7 9 -3 14 -9 11 -13 -7 -12 29 -9 44 3
12 9 13 8 7 -4 -4 -9 -2 -8 7 2 8 10 18 14 22 10 5 -4 6 0 2 9 -3 9 0 22 6 28
8 8 8 11 0 11 -18 0 -74 51 -67 61 3 5 -2 9 -10 9 -9 0 -16 7 -16 16 0 9 -9
18 -20 21 -11 3 -20 12 -20 19 0 13 -13 19 -34 15 -5 -1 -5 4 1 11 8 9 7 16
-2 25 -7 6 -16 9 -19 6 -3 -4 -6 1 -6 10 0 20 -11 22 -28 5z"/>
<path d="M3655 1140 c3 -5 8 -10 11 -10 2 0 4 5 4 10 0 6 -5 10 -11 10 -5 0
-7 -4 -4 -10z"/>
<path d="M1519 1108 c-1 -5 -2 -14 -3 -20 -1 -7 -7 -12 -13 -11 -6 1 -9 -6 -5
-19 3 -12 1 -19 -5 -15 -5 3 -17 -7 -27 -24 -9 -16 -14 -29 -11 -29 6 0 -6
-16 -37 -51 -10 -10 -18 -23 -18 -29 0 -5 -8 -13 -17 -18 -21 -12 -26 -52 -5
-44 9 3 13 1 9 -5 -3 -5 0 -10 8 -11 8 -1 22 -3 30 -4 8 -1 13 -4 11 -7 -2 -3
8 -15 23 -26 16 -12 22 -14 16 -4 -5 8 -2 6 7 -4 10 -11 29 -20 42 -21 16 -1
21 -5 15 -12 -5 -7 -3 -11 6 -11 8 0 15 6 15 14 0 7 5 13 11 13 6 0 9 6 6 13
-2 6 -10 11 -16 10 -6 -2 -11 4 -11 13 0 8 -4 12 -10 9 -5 -3 -10 -1 -10 4 0
6 -6 11 -12 11 -7 0 -25 10 -40 23 -24 21 -25 24 -10 35 15 10 15 11 -3 5 -19
-6 -19 -5 2 16 24 22 43 28 43 11 0 -5 7 -10 16 -10 8 0 12 -5 9 -10 -4 -6 -3
-10 2 -9 21 4 44 -2 39 -9 -3 -5 1 -9 9 -9 8 0 12 4 9 9 -3 4 0 8 7 8 8 0 7 5
-2 17 -10 11 -10 14 -1 9 17 -10 15 2 -3 20 -8 9 -15 12 -15 8 0 -4 -9 2 -21
14 -11 12 -24 20 -29 17 -4 -3 -3 9 3 25 7 17 13 26 15 20 3 -7 9 -7 20 2 13
11 15 10 9 -4 -4 -13 -1 -16 14 -13 10 2 19 -1 19 -7 0 -6 3 -8 7 -5 3 4 11
-1 18 -10 16 -22 50 -24 63 -3 7 12 4 21 -13 36 -13 10 -29 20 -36 22 -8 2
-19 10 -25 18 -6 7 -19 14 -28 14 -10 0 -14 5 -11 10 5 9 -1 12 -21 9 -4 0
-11 5 -15 13 -7 10 -9 10 -9 -2 0 -13 -1 -13 -10 0 -5 8 -10 12 -11 8z"/>
<path d="M3170 1045 c-7 -9 -19 -14 -27 -11 -8 3 -11 1 -8 -4 3 -6 0 -10 -8
-10 -8 0 -18 -7 -21 -16 -3 -8 -11 -12 -17 -8 -8 5 -9 3 -4 -6 4 -7 2 -16 -5
-20 -7 -4 -13 -21 -15 -38 -1 -16 -6 -35 -10 -42 -6 -9 -4 -11 4 -6 8 5 11 3
10 -5 -5 -24 11 -70 22 -63 6 3 13 -4 16 -16 3 -13 11 -19 20 -16 8 3 11 1 8
-4 -3 -6 3 -10 14 -10 12 0 21 -5 21 -12 0 -6 2 -9 6 -6 3 3 21 2 40 -2 27 -6
37 -5 41 6 3 8 9 11 14 9 4 -3 17 3 29 15 11 11 20 18 20 15 0 -3 6 0 14 7 8
7 12 16 10 19 -2 4 3 10 12 13 10 4 14 14 11 26 -3 11 0 20 6 20 8 0 7 4 -2 9
-9 6 -10 10 -2 16 9 5 9 10 0 21 -9 11 -9 14 0 14 8 0 7 6 -3 16 -9 8 -16 20
-16 25 0 6 -4 7 -10 4 -6 -3 -7 1 -4 9 4 12 0 16 -16 16 -11 0 -18 5 -15 10 6
9 -8 14 -27 11 -5 0 -8 4 -8 10 0 5 -4 7 -10 4 -5 -3 -10 -1 -10 6 0 8 -4 9
-13 0 -10 -8 -17 -7 -25 1 -9 9 -12 9 -12 0 0 -7 -5 -12 -11 -12 -5 0 -7 5 -4
10 10 16 -1 12 -15 -5z m124 -87 c-3 -4 0 -8 7 -8 7 0 10 -3 6 -6 -3 -3 -1
-17 4 -31 7 -20 6 -24 -4 -20 -8 3 -14 -1 -14 -9 0 -7 4 -11 9 -8 4 3 8 1 8
-5 0 -5 -5 -13 -10 -16 -6 -4 -7 -11 -4 -17 4 -7 2 -8 -4 -4 -7 4 -23 -4 -37
-18 -14 -14 -25 -20 -25 -14 0 5 -6 8 -14 5 -7 -3 -19 0 -25 6 -6 6 -11 8 -11
4 0 -5 -12 4 -26 18 -15 15 -26 37 -26 55 -1 16 -5 27 -10 24 -5 -4 -4 3 4 15
7 12 16 21 21 21 4 0 5 5 1 12 -5 7 -2 9 9 5 12 -4 14 -2 10 11 -3 9 -3 14 1
10 4 -3 19 0 33 7 21 11 30 10 63 -8 22 -11 37 -24 34 -29z"/>
<path d="M1752 930 c-11 -22 -14 -36 -8 -33 6 4 6 1 -1 -8 -7 -9 -14 -25 -16
-37 -2 -12 -7 -25 -12 -29 -4 -5 -5 -2 -1 4 5 9 2 11 -7 7 -9 -3 -13 -13 -9
-26 3 -14 -1 -26 -13 -35 -20 -14 -30 -83 -13 -83 5 0 6 -4 3 -10 -9 -14 8
-12 24 3 11 10 12 9 6 -3 -4 -8 1 -6 12 5 11 11 16 22 11 24 -5 1 -1 10 9 18
10 8 12 12 6 8 -9 -4 -11 -1 -7 9 3 9 11 13 17 9 6 -4 8 0 4 10 -3 9 -1 19 5
23 7 5 8 2 4 -7 -4 -8 0 -5 8 5 13 16 16 17 16 4 0 -9 10 -18 21 -21 14 -4 20
-11 16 -21 -3 -8 -1 -18 5 -22 7 -4 6 -9 -3 -15 -12 -8 -11 -11 1 -19 14 -9 7
-15 -14 -11 -5 1 -4 -5 3 -13 7 -8 9 -21 5 -28 -4 -7 -3 -10 1 -5 5 4 17 0 27
-10 10 -9 19 -14 21 -12 1 2 11 15 22 28 11 14 14 21 6 16 -11 -7 -13 -2 -8
26 3 19 3 28 0 21 -7 -17 -23 -5 -17 13 4 8 10 12 15 9 5 -3 6 2 3 10 -3 9
-10 13 -15 10 -5 -3 -9 -3 -9 0 0 3 16 12 35 20 20 9 35 22 35 32 0 9 6 14 13
11 8 -3 12 7 13 29 1 19 -3 34 -7 34 -5 0 -8 3 -8 8 5 27 -1 34 -18 21 -10 -8
-14 -9 -10 -2 4 6 3 14 -3 18 -6 4 -8 10 -5 14 2 5 -6 6 -19 4 -13 -3 -30 2
-38 11 -9 8 -18 12 -22 9 -3 -4 -6 -2 -6 4 0 5 -13 10 -29 11 -25 0 -33 -6
-49 -38z m95 -37 c6 4 21 -6 35 -22 23 -26 24 -29 9 -48 -14 -17 -48 -22 -37
-5 2 4 -7 8 -21 9 -30 1 -46 22 -32 39 7 8 6 14 -3 17 -8 4 -7 6 5 6 9 1 17 7
17 14 0 9 3 8 9 -2 5 -7 13 -11 18 -8z"/>
<path d="M2937 939 c-9 -5 -22 -7 -27 -4 -6 3 -10 -2 -11 -12 0 -10 -2 -26 -4
-36 -2 -9 1 -15 6 -11 5 3 9 -2 9 -10 0 -9 5 -16 12 -16 6 0 9 -3 5 -6 -3 -4
0 -22 8 -41 8 -19 13 -39 10 -43 -3 -4 1 -10 9 -13 9 -4 13 -19 12 -41 -1 -25
2 -32 10 -25 8 7 11 4 10 -8 0 -10 5 -17 12 -16 6 2 12 -4 12 -12 0 -8 5 -15
10 -15 6 0 10 7 10 16 0 8 4 13 8 10 4 -2 9 6 10 20 1 13 -3 24 -8 24 -5 0 -8
14 -6 31 2 20 -1 32 -11 36 -12 5 -12 7 -1 14 8 5 9 9 2 9 -10 0 -18 16 -24
48 0 4 -8 17 -16 30 -8 12 -12 27 -9 32 3 6 1 10 -5 10 -6 0 -8 5 -5 10 3 6 0
10 -7 10 -9 0 -9 3 2 10 20 13 0 12 -23 -1z"/>
<path d="M2754 888 c-5 -7 -3 -8 6 -3 9 5 11 4 6 -4 -6 -9 -11 -9 -22 0 -11 9
-14 9 -14 -1 0 -7 -7 -10 -15 -6 -8 3 -15 2 -15 -2 0 -4 -22 -7 -50 -8 -56 0
-59 -2 -65 -34 -6 -31 3 -42 25 -30 13 7 21 7 26 -1 5 -8 8 -8 14 0 5 8 14 6
31 -8 15 -12 19 -20 10 -21 -9 0 -10 -4 -4 -12 5 -7 9 -20 8 -28 0 -8 4 -18
10 -22 6 -5 4 -8 -5 -8 -13 0 -13 -2 -1 -9 12 -8 12 -12 2 -24 -9 -11 -9 -17
-1 -22 6 -4 9 -14 6 -22 -4 -9 -2 -11 6 -7 7 5 9 2 5 -9 -7 -18 10 -34 33 -32
8 1 21 3 28 3 7 1 10 7 6 14 -5 8 -1 9 12 4 15 -6 17 -5 7 5 -7 7 -13 21 -13
31 0 10 -7 18 -17 18 -11 0 -14 3 -7 8 6 4 9 16 7 27 -3 11 -4 28 -4 38 0 11
-5 15 -12 10 -8 -5 -8 -2 1 9 10 13 10 17 -3 22 -8 3 -15 10 -15 16 0 6 4 9 8
6 5 -3 9 1 9 9 0 8 -4 12 -9 9 -4 -3 -5 2 -2 10 3 9 14 16 24 16 10 0 26 3 36
7 13 5 15 3 9 -8 -6 -11 -5 -12 5 -2 14 13 23 62 12 64 -46 8 -72 7 -78 -3z
m-14 -288 c0 -5 -5 -10 -11 -10 -5 0 -7 5 -4 10 3 6 8 10 11 10 2 0 4 -4 4
-10z"/>
<path d="M2040 856 c6 -6 5 -15 -3 -25 -10 -12 -9 -13 3 -6 13 8 13 6 2 -8 -8
-9 -11 -21 -7 -27 3 -5 2 -10 -4 -10 -5 0 -8 -9 -6 -20 3 -13 -2 -20 -13 -21
-14 0 -13 -2 3 -9 18 -7 18 -9 3 -15 -9 -4 -14 -13 -11 -21 3 -8 1 -14 -4 -14
-5 0 -8 -13 -7 -30 1 -16 -2 -30 -7 -30 -6 0 -5 -8 1 -20 6 -11 16 -17 25 -14
8 4 15 1 15 -5 0 -6 4 -11 10 -11 5 0 6 7 3 17 -5 12 -3 14 7 8 10 -6 12 -3 8
13 -4 12 -2 25 3 28 6 3 7 14 4 25 -4 12 -2 19 7 19 10 0 9 3 -2 11 -11 8 -12
12 -2 16 6 2 10 9 6 14 -3 5 2 9 11 9 9 0 13 -4 10 -10 -3 -5 -1 -10 4 -10 6
0 11 -7 11 -15 0 -8 5 -15 11 -15 5 0 8 -4 4 -9 -3 -5 0 -13 6 -16 5 -4 8 -13
5 -21 -3 -8 -1 -14 5 -14 6 0 9 -7 5 -15 -3 -8 0 -14 6 -12 6 1 15 -9 19 -23
4 -14 7 -19 8 -11 1 11 5 10 16 -5 14 -19 14 -19 15 1 1 11 4 14 7 8 2 -7 9
-13 14 -13 6 0 7 5 3 12 -5 8 -2 9 10 5 14 -5 15 -3 6 12 -7 14 -6 21 3 24 9
4 9 6 0 6 -7 1 -10 8 -6 18 5 12 3 14 -8 9 -8 -4 -6 -1 3 7 12 9 14 17 7 24
-8 8 -7 13 2 18 8 5 10 4 5 -3 -4 -7 -2 -12 3 -12 14 0 14 17 1 25 -6 4 -7 12
-3 18 4 7 9 23 9 37 1 14 3 27 4 30 6 14 -3 66 -12 72 -14 8 -38 -14 -30 -27
3 -5 -2 -4 -11 4 -15 12 -17 12 -12 -2 4 -8 1 -18 -5 -22 -7 -4 -8 -11 -2 -18
13 -16 11 -47 -2 -47 -6 0 -5 -4 3 -9 11 -7 10 -11 -7 -20 -16 -8 -21 -7 -26
5 -4 10 -2 13 7 8 9 -6 9 -5 0 8 -7 8 -10 18 -6 21 3 4 1 7 -6 7 -8 0 -11 8
-8 20 3 11 1 18 -4 14 -17 -10 -31 7 -18 22 9 11 9 14 -1 14 -8 0 -11 3 -7 6
13 14 -24 35 -58 32 -22 -1 -31 -6 -25 -12z"/>
<path d="M2432 838 c-7 -7 -12 -8 -12 -3 0 5 -7 -1 -16 -13 -8 -12 -12 -27 -9
-32 3 -6 0 -13 -9 -16 -9 -3 -12 -12 -9 -21 4 -10 2 -14 -4 -10 -6 4 -9 -5 -7
-23 2 -17 -1 -30 -7 -30 -6 0 -9 -9 -6 -20 3 -11 0 -18 -7 -17 -6 1 -10 -6 -8
-15 2 -10 -2 -18 -8 -18 -5 0 -10 -5 -10 -11 0 -5 6 -7 13 -4 6 4 4 0 -5 -8
-14 -11 -15 -16 -5 -26 9 -10 8 -11 -8 -6 -17 6 -16 4 4 -13 23 -18 57 -20 46
-2 -3 4 2 11 11 14 8 3 12 10 9 16 -5 9 1 12 21 9 4 0 11 5 15 13 6 9 9 9 9 1
0 -7 9 -10 23 -7 34 7 77 -6 77 -22 0 -9 5 -12 10 -9 6 3 10 -1 10 -9 0 -9 5
-16 10 -16 6 0 10 8 10 18 0 14 2 15 10 2 9 -13 14 -7 11 13 0 4 4 7 11 7 6 0
1 8 -10 19 -12 10 -23 30 -24 44 -1 14 -6 23 -10 21 -7 -5 -12 10 -9 29 0 4
-4 7 -10 7 -7 0 -9 10 -7 25 4 17 1 25 -8 25 -8 0 -14 9 -14 20 0 11 -4 20
-10 20 -5 0 -7 6 -4 14 3 8 -3 19 -15 26 -12 6 -21 7 -21 3 0 -4 -4 -2 -8 4
-6 10 -11 10 -20 1z m34 -113 c-3 -8 2 -19 12 -24 12 -7 13 -10 3 -11 -10 0
-11 -3 -2 -13 6 -8 8 -17 4 -20 -3 -4 -12 1 -20 11 -12 16 -13 15 -6 -3 6 -18
5 -19 -12 -5 -11 9 -16 10 -11 3 11 -19 -9 -16 -25 4 -8 9 -9 14 -2 10 7 -5
14 3 18 22 3 17 14 32 23 34 9 3 19 5 21 6 2 0 1 -6 -3 -14z"/>
<path d="M2407 499 c7 -7 15 -10 18 -7 3 3 -2 9 -12 12 -14 6 -15 5 -6 -5z"/>
<path d="M60 1819 c0 -5 5 -7 10 -4 6 3 10 8 10 11 0 2 -4 4 -10 4 -5 0 -10
-5 -10 -11z"/>
<path d="M4445 1380 c3 -5 8 -10 11 -10 2 0 4 5 4 10 0 6 -5 10 -11 10 -5 0
-7 -4 -4 -10z"/>
<path d="M2075 379 c-4 -6 -5 -12 -2 -15 2 -3 7 2 10 11 7 17 1 20 -8 4z"/>
</g>
</svg>
